<svg id="_0002_problem_solving" xmlns="http://www.w3.org/2000/svg" viewBox="0 0 500 500" data-imageid="problem-solving-5-67" imageName="Problem Solving 5" class="illustrations_image" style="width: 158px;"><defs><style>.cls-1_problem-solving-5-67{fill:#f4a28c;}.cls-2_problem-solving-5-67{fill:#a5a5a5;}.cls-3_problem-solving-5-67{fill:#e6e6e6;}.cls-4_problem-solving-5-67{fill:#ce8172;opacity:.31;}.cls-5_problem-solving-5-67{fill:#fff;opacity:.2;}.cls-6_problem-solving-5-67{opacity:.02;}.cls-6_problem-solving-5-67,.cls-7_problem-solving-5-67{fill:#000001;}.cls-8_problem-solving-5-67{fill:#24285b;}.cls-7_problem-solving-5-67{opacity:.08;}.cls-9_problem-solving-5-67{fill:#ffd200;}.cls-10_problem-solving-5-67{fill:#68e1fd;}</style></defs><ellipse id="sd_problem-solving-5-67" class="cls-6_problem-solving-5-67" cx="285.9" cy="429.42" rx="188.28" ry="25.52"/><g id="person_problem-solving-5-67"><path class="cls-10_problem-solving-5-67 targetColor" d="m273.8,168.68s-7.03,32.05-44.24,35.66c-37.21,3.61-89.21-83.29-89.21-83.29,0,0,44.89,4.55,61.26,26.51,16.36,21.96,32.41,32.21,57.94,15.19l14.26,5.93Z" style="fill: rgb(255, 186, 8);"/><path class="cls-5_problem-solving-5-67" d="m273.8,168.68s-7.03,32.05-44.24,35.66c-37.21,3.61-89.21-83.29-89.21-83.29,0,0,44.89,4.55,61.26,26.51,16.36,21.96,32.41,32.21,57.94,15.19l14.26,5.93Z"/><path class="cls-10_problem-solving-5-67 targetColor" d="m138.02,408.33s-2.19,7.3,2.69,11.59c4.88,4.29,2.48,10.39-3.18,8.25-5.66-2.14-13.29-17.08-13.29-17.08l5.89-7.26,7.88,4.5Z" style="fill: rgb(255, 186, 8);"/><path class="cls-10_problem-solving-5-67 targetColor" d="m203.42,403.95s-1.23,7.52,4.16,11.14,3.8,9.98-2.09,8.6-15.38-15.22-15.38-15.22l4.91-7.96,8.4,3.45Z" style="fill: rgb(255, 186, 8);"/><path class="cls-1_problem-solving-5-67" d="m97.57,64.73s-.72,14.1-4.35,23.04c-1.47,3.63-5.67,5.4-9.28,3.87-4.48-1.89-9.98-5.75-10.51-13.35l-2.49-12.79s-1.28-8.07,7.39-12.65c8.67-4.58,20.1,3.31,19.23,11.88Z"/><polygon class="cls-1_problem-solving-5-67" points="71.66 76.42 78.1 114.82 104.16 116.02 89 86.02 71.66 76.42"/><path class="cls-8_problem-solving-5-67" d="m94.01,64.83c-2.46-.21-6.94-.85-12.74-2.78,0,0,3.53,6.69-1.77,12.79-1.86,2.14-3.89,3.05-5.74,3.33-3.28.49-6.04-2.51-5.55-5.79l2.01-13.26c.63-5.25,4.06-9.76,8.98-11.7,2.01-.79,4.22-1.56,6.4-2.1,5.46-1.36,12.56,3.14,17.68.29,2.25-1.25,5.02.38,5.04,2.95.05,5.58-2.12,14.04-9.92,16-1.43.36-2.92.39-4.39.27Z"/><path class="cls-1_problem-solving-5-67" d="m81.05,74.64s.64-5.4-3.46-5.54c-4.1-.15-5.08,7.65.32,9.14l3.14-3.59Z"/><path class="cls-1_problem-solving-5-67" d="m96.66,73.59l3.15,5.93c.78,1.46-.23,3.24-1.89,3.32l-5.49.27,4.22-9.51Z"/><path class="cls-4_problem-solving-5-67" d="m91.26,90.53s-5.47.38-9.03-1.91c0,0,.75,10.1,13.37,10.51l-4.34-8.59Z"/><path class="cls-8_problem-solving-5-67" d="m193.73,281.96l19.09,29.72c10.17,15.83,12.44,35.48,6.15,53.22l-13.81,38.93-14.33-3.11,4.02-38.72c1.24-11.94-3.55-23.71-12.78-31.4l-29.11-24.25,22.01-24.39h18.77Z"/><path class="cls-10_problem-solving-5-67 targetColor" d="m30.39,149.49c.77-21.53,18.92-38.32,40.46-37.8,26.35.63,65.2,4.06,89.56,17.57,39.65,22.01,32.88,147.77,32.88,147.77l-84.97,19.99S27.97,217.66,30.39,149.49Z" style="fill: rgb(255, 186, 8);"/><path class="cls-7_problem-solving-5-67" d="m68.15,134.53s36.01,15.74,51.17,78.66c15.03,62.37,71.5,25.25,71.5,25.25l-.83,39.78-81.67,18.8-17.72-19.49s-53.54-58.93-22.45-143Z"/><path class="cls-8_problem-solving-5-67" d="m108.32,297.01l19.88,30.3c7.72,11.77,10.05,26.28,6.39,39.87l-10.26,38.11,16.01,3.67,21.61-39.33c8.96-16.3,10.04-35.78,2.94-52.97l-4.59-11.11,25.64-26.81-77.63,18.27Z"/><path class="cls-9_problem-solving-5-67" d="m249.58,236.43l30.31-24.7-30.9-37.91c7.6,1.53,15.8-.22,22.27-5.5,11.49-9.37,13.21-26.27,3.85-37.76-9.37-11.49-26.27-13.21-37.76-3.85-6.48,5.28-9.85,12.95-9.88,20.71l-30.9-37.91-102.22,83.33,83.33,102.22,30.31-24.7c-9.37-11.49-7.64-28.4,3.85-37.76,11.49-9.37,28.4-7.64,37.76,3.85Z"/><path class="cls-7_problem-solving-5-67" d="m131.52,238.44l73.92,1.7s-9.28,13.91,2.54,30.21l-30.31,24.7-46.15-56.61Z"/><path class="cls-10_problem-solving-5-67 targetColor" d="m28.56,144.43c-3.87,18.71-7.16,55.11,16.13,109.11,6.24,14.48,20.56,23.82,36.32,23.93l108.98.76.83-16.72-100.5-16.72s4.03-85.17-24.13-112.29c-12.64-12.18-34.08-5.24-37.63,11.95Z" style="fill: rgb(255, 186, 8);"/><path class="cls-5_problem-solving-5-67" d="m28.56,144.43c-3.87,18.71-7.16,55.11,16.13,109.11,6.24,14.48,20.56,23.82,36.32,23.93l108.98.76.83-16.72-100.5-16.72s4.03-85.17-24.13-112.29c-12.64-12.18-34.08-5.24-37.63,11.95Z"/><path class="cls-1_problem-solving-5-67" d="m190.11,275.7s13.21,6.67,19.92.26c6.71-6.41.31-10.98,0-17.69-.12-2.68-1.44-3.9-2.98-4.39-2.41-.77-5.07.38-6.35,2.56-1.75,2.98-5.26,7.56-9.88,6.79l-.71,12.47Z"/><path class="cls-1_problem-solving-5-67" d="m278.76,158.75s-8.11-10.16-17.07,0c-8.96,10.16,9.59,24.9,17.07,0Z"/><path class="cls-7_problem-solving-5-67" d="m90.32,244.77s-7.58-.69-18.97,0c0,0,7.54-4.21,18.97-6.33v6.33Z"/></g><g id="puzz3_problem-solving-5-67"><rect class="cls-2_problem-solving-5-67" x="202.3" y="293.06" width="124.61" height="131.32"/><circle class="cls-2_problem-solving-5-67" cx="261.27" cy="269.95" r="27.63"/></g><g id="puzz2_problem-solving-5-67"><rect class="cls-3_problem-solving-5-67" x="326.9" y="293.06" width="124.61" height="131.32"/><circle class="cls-3_problem-solving-5-67" cx="305.28" cy="365.11" r="26.79"/></g><g id="puzz1_problem-solving-5-67"><path class="cls-8_problem-solving-5-67" d="m326.9,161.51v38.11c2.74-.94,5.67-1.48,8.73-1.48,14.8,0,26.79,11.99,26.79,26.79s-11.99,26.79-26.79,26.79c-3.06,0-5.99-.54-8.73-1.48v42.6h124.61v-131.32h-124.61Z"/><circle class="cls-8_problem-solving-5-67" cx="389.21" cy="314.64" r="26.79"/></g></svg>