<svg id="_0002_problem_solving" xmlns="http://www.w3.org/2000/svg" xmlns:xlink="http://www.w3.org/1999/xlink" viewBox="0 0 500 500" data-imageid="problem-solving-5-2" imageName="Problem Solving 5" class="illustrations_image" style="width: 158px;"><defs><style>.cls-1_problem-solving-5-2{fill:#000405;opacity:.05;}.cls-1_problem-solving-5-2,.cls-2_problem-solving-5-2,.cls-3_problem-solving-5-2,.cls-4_problem-solving-5-2,.cls-5_problem-solving-5-2,.cls-6_problem-solving-5-2,.cls-7_problem-solving-5-2,.cls-8_problem-solving-5-2,.cls-9_problem-solving-5-2,.cls-10_problem-solving-5-2,.cls-11_problem-solving-5-2,.cls-12_problem-solving-5-2,.cls-13_problem-solving-5-2,.cls-14_problem-solving-5-2,.cls-15_problem-solving-5-2,.cls-16_problem-solving-5-2,.cls-17_problem-solving-5-2,.cls-18_problem-solving-5-2,.cls-19_problem-solving-5-2,.cls-20_problem-solving-5-2,.cls-21_problem-solving-5-2{stroke-width:0px;}.cls-1_problem-solving-5-2,.cls-3_problem-solving-5-2,.cls-6_problem-solving-5-2,.cls-21_problem-solving-5-2{isolation:isolate;}.cls-2_problem-solving-5-2{fill:url(#linear-gradient);}.cls-3_problem-solving-5-2{opacity:.18;}.cls-3_problem-solving-5-2,.cls-6_problem-solving-5-2,.cls-20_problem-solving-5-2{fill:#68e1fd;}.cls-4_problem-solving-5-2{fill:url(#linear-gradient-11-problem-solving-5-2);}.cls-5_problem-solving-5-2{fill:url(#linear-gradient-10-problem-solving-5-2);}.cls-6_problem-solving-5-2{opacity:.4;}.cls-7_problem-solving-5-2{fill:url(#linear-gradient-4-problem-solving-5-2);}.cls-8_problem-solving-5-2{fill:url(#linear-gradient-2-problem-solving-5-2);}.cls-9_problem-solving-5-2{fill:url(#linear-gradient-3-problem-solving-5-2);}.cls-10_problem-solving-5-2{fill:url(#linear-gradient-8-problem-solving-5-2);}.cls-11_problem-solving-5-2{fill:url(#linear-gradient-9-problem-solving-5-2);}.cls-12_problem-solving-5-2{fill:url(#linear-gradient-7-problem-solving-5-2);}.cls-13_problem-solving-5-2{fill:url(#linear-gradient-5-problem-solving-5-2);}.cls-14_problem-solving-5-2{fill:url(#linear-gradient-6-problem-solving-5-2);}.cls-15_problem-solving-5-2{fill:#231f20;}.cls-16_problem-solving-5-2{fill:#e2897a;}.cls-17_problem-solving-5-2{fill:#c14834;}.cls-18_problem-solving-5-2,.cls-21_problem-solving-5-2{fill:#fff;}.cls-19_problem-solving-5-2{fill:#ffb4a3;}.cls-21_problem-solving-5-2{opacity:.49;}</style><linearGradient id="linear-gradient-problem-solving-5-2" x1="401.03" y1="753.16" x2="508.38" y2="777.91" gradientTransform="translate(-85.92 -484.01)" gradientUnits="userSpaceOnUse"><stop offset="0" stop-color="#231f20" stop-opacity="0"/><stop offset="1" stop-color="#231f20"/></linearGradient><linearGradient id="linear-gradient-2-problem-solving-5-2" x1="404.98" y1="260.84" x2="496.85" y2="211.32" gradientTransform="matrix(1,0,0,1,0,0)" xlink:href="#linear-gradient-problem-solving-5-2"/><linearGradient id="linear-gradient-3-problem-solving-5-2" x1="382.56" y1="195.79" x2="402.77" y2="195.79" gradientTransform="matrix(1,0,0,1,0,0)" xlink:href="#linear-gradient-problem-solving-5-2"/><linearGradient id="linear-gradient-4-problem-solving-5-2" x1="469.51" y1="768.46" x2="538.03" y2="801.19" xlink:href="#linear-gradient-problem-solving-5-2"/><linearGradient id="linear-gradient-5-problem-solving-5-2" x1="202.62" y1="822.68" x2="259.16" y2="822.68" xlink:href="#linear-gradient-problem-solving-5-2"/><linearGradient id="linear-gradient-6-problem-solving-5-2" x1="281.34" y1="787.4" x2="214.75" y2="863.49" xlink:href="#linear-gradient-problem-solving-5-2"/><linearGradient id="linear-gradient-7-problem-solving-5-2" x1="85.05" y1="298.31" x2="436.9" y2="302.22" gradientTransform="matrix(1,0,0,1,0,0)" xlink:href="#linear-gradient-problem-solving-5-2"/><linearGradient id="linear-gradient-8-problem-solving-5-2" x1="202.73" y1="220.85" x2="70.79" y2="628.41" gradientTransform="matrix(1,0,0,1,0,0)" xlink:href="#linear-gradient-problem-solving-5-2"/><linearGradient id="linear-gradient-9-problem-solving-5-2" x1="334.81" y1="691.84" x2="289.63" y2="690.19" xlink:href="#linear-gradient-problem-solving-5-2"/><linearGradient id="linear-gradient-10-problem-solving-5-2" x1="223.74" y1="214.95" x2="267.61" y2="214.95" gradientTransform="matrix(1,0,0,1,0,0)" xlink:href="#linear-gradient-problem-solving-5-2"/><linearGradient id="linear-gradient-11-problem-solving-5-2" x1="223.32" y1="202.26" x2="269.16" y2="202.26" gradientTransform="matrix(1,0,0,1,0,0)" xlink:href="#linear-gradient-problem-solving-5-2"/></defs><path id="background_problem-solving-5-2" class="cls-3_problem-solving-5-2 targetColor" d="M491.79,294.29c0,9.56-1.05,19.08-3.15,28.41-18.6,83.36-117.74,146.99-237.21,146.99-49.29,0-95.12-10.83-133.25-29.4-26.31-12.81-48.97-29.31-66.58-48.49-7.49-7.1-14.07-15.1-19.62-23.8C-18.56,289.54.4,149.55,85.93,150.71c10.2.2,20.41-.32,30.54-1.56,24.03-3.1,38.61-10.37,47.44-18.25,2.17-1.93,4.14-4.06,5.9-6.37,12.29-16.33,30.4-27.29,50.57-30.6,178.41-28.58,243.37,60.36,263.51,135.3,5.47,20.21,8.11,41.08,7.84,62.01.05,1.01.07,2.03.07,3.04Z" style="fill: rgb(255, 186, 8);"/><path id="shadow_problem-solving-5-2" class="cls-1_problem-solving-5-2" d="M132.68,408.09l-95.19-32.14S2.46,332.49,4.41,259.41l141.66,57.99s61.6-17.7,98.29-19.47c36.7-1.77,199.38-18.85,199.38-18.85,0,0,31.4,35.99,17.43,47-13.96,11.01-114.47,12.86-114.47,12.86l-69.89-40.96-58.75,45.42-44.85,42.27-40.53,22.43Z"/><g id="character_1_problem-solving-5-2"><path class="cls-15_problem-solving-5-2" d="M288.73,246.73l-1.5,3.8s4.49,3.97,1.5,5.67c0,0,15.56-.96,0-9.47Z"/><path class="cls-15_problem-solving-5-2" d="M245.04,257.47l-1.7,6.64,8.7,7.71s-2.49,0-4.49,3.89l-.79,8.5s5.85,12.65,21.98,1.59l26.16,23.13,58.03-20.44,1.24-7.91-109.14-23.11Z"/><path class="cls-20_problem-solving-5-2 targetColor" d="M402.37,263.81l-28.87-11.34c-3.62-2.03-7.99-2.15-11.72-.34-3.31,1.57-5.49,4.84-5.64,8.51-.99,10.91,4.88,61.15,4.88,61.15,2.17.84,4.42,1.42,6.73,1.73,4.09.81,8.33-.22,11.58-2.83l.56-37.79s32.54,20.1,44.15,18.43c12.99-1.87,33.89-12.53,19.77-37.25-14.12-24.72-41.44-.25-41.44-.25Z" style="fill: rgb(255, 186, 8);"/><path class="cls-2_problem-solving-5-2" d="M402.37,263.81l-28.87-11.34c-3.62-2.03-7.99-2.15-11.72-.34-3.31,1.57-5.49,4.84-5.64,8.51-.99,10.91,4.88,61.15,4.88,61.15,2.17.84,4.42,1.42,6.73,1.73,4.09.81,8.33-.22,11.58-2.83l.56-37.79s32.54,20.1,44.15,18.43c12.99-1.87,33.89-12.53,19.77-37.25-14.12-24.72-41.44-.25-41.44-.25Z"/><path class="cls-20_problem-solving-5-2 targetColor" d="M378.45,197.34s-8.48,26.99-10.76,32.77-42.37,10.6-42.37,10.6l1.5,17.32,45.64-5.67,13.72-19.85-7.73-35.18Z" style="fill: rgb(255, 186, 8);"/><path class="cls-20_problem-solving-5-2 targetColor" d="M401.28,188.39l9.29,5.16c17.26,7.71,23.53,24.86,33.25,70.64,0,0-8.16,18.25-38.21,5.98,0,0-20.39-29.8-23.76-40.96-3.36-11.17-11.83-30.39,3.74-37.74,15.57-7.35,15.69-3.08,15.69-3.08Z" style="fill: rgb(255, 186, 8);"/><path class="cls-8_problem-solving-5-2" d="M421.2,227.69l11.32,42.71s-11.55,7.04-26.99-.25c-15.44-7.3-9.97-14.55-14.95-23.42l15.12-8.22,15.5-10.81Z"/><path class="cls-9_problem-solving-5-2" d="M399.97,186.54c-2.44,5.28-8.7,7.59-13.99,5.15,0,0,0,0-.01,0l-.43-.21s-8.73,15.23,3.74,13.41c6.61-.96,12.39-10.8,13.5-15.79l-2.8-2.56Z"/><path class="cls-19_problem-solving-5-2" d="M400.53,174.33c0,.17-.4,7.68-.7,13.1-.22,4.19-2.02,8.14-5.03,11.06-1.74,1.81-3.84,3.25-6.16,4.22-1.14.42-2.42.17-3.32-.65-.9-.83-1.26-2.09-.94-3.27.3-1.13.6-2.43.84-3.79.49-2.83.75-5.88-.05-8.04-.02-.08-.05-.16-.08-.24-.45-1.11,0-2.33,1.05-3.56,1.45-1.72,3.99-3.46,6.53-4.93,2.55-1.44,5.17-2.74,7.86-3.89Z"/><path class="cls-16_problem-solving-5-2" d="M386.88,194.42c-.52.26-1.07.46-1.64.58.49-2.83.75-5.88-.05-8.04l.97-3.8.75-2.83,5.82-2.11,5.88-2.13c-1.47,10.45-7.05,16.14-11.73,18.33Z"/><path class="cls-19_problem-solving-5-2" d="M385.39,144.56c-9.21.55-16.23,8.45-15.7,17.66,0,.43.07.85.13,1.28.52,6.78,2.27,13.42,5.14,19.59,5.45,9.3,19.2,1.64,21.38-2.18s10.4-21.15,6.95-26.07c-2.28-3.35-8.98-10.61-17.9-10.26Z"/><path class="cls-15_problem-solving-5-2" d="M370.87,137.98l2.83,1.45c-3.42-.08-6.67,1.49-8.73,4.22-2.58,2.58-4.05,6.07-4.1,9.72l4.81-2.24s-.37,5.92,8.72,6.38c9.09.46,18.73.82,18.73.82l-3.06-4.28s5.64,2.24,6.64,4.37c.89,3.35,1.53,6.76,1.91,10.21,0,0,2.24-5.85,3.19-4.57s-.99,6.58-2.18,7.74-.99,4.65-1.1,4.93,5.65-4.49,5.91-6.12,5.98-18.22,2.24-21.68l2.24-.16c-1.34-.91-2.88-1.51-4.49-1.73,0,0-14.87-19.65-33.56-9.05Z"/><path class="cls-19_problem-solving-5-2" d="M325.26,242.88c-2.88-.5-5.71-1.25-8.45-2.24-4.4-1.14-8.91-1.85-13.46-2.1,0,0-.87,2.99,1.5,3.6s5.08,1.61,5.08,1.61l-9.88.99-9.15,1.25s.87,2.99,3.33,2.99c.71,1.29,1.67,2.42,2.82,3.34,1.74,1.57,3.35,3.28,4.83,5.11,1.24.98,2.56,1.85,3.95,2.61.51,0,19.77-2.24,20.93-4.08l-1.5-13.08Z"/><path class="cls-20_problem-solving-5-2 targetColor" d="M405.62,270.17s2.99,14.88,7.42,18.63c0,0-29.06,22.68-30.42,39.09-1.89,22.68,69.62-12.49,69.62-12.49l-4.95-12.53-31.01,13.75s18.87-12.75,28.27-25.51c7.37-10.12,3.36-19.44-.75-26.67-.07-.24-17.87,14.47-38.2,5.74Z" style="fill: rgb(255, 186, 8);"/><path class="cls-7_problem-solving-5-2" d="M405.62,270.17s2.99,14.88,7.42,18.63c0,0-29.06,22.68-30.42,39.09-1.89,22.68,69.62-12.49,69.62-12.49l-4.95-12.53-31.01,13.75s18.87-12.75,28.27-25.51c7.37-10.12,3.36-19.44-.75-26.67-.07-.24-17.87,14.47-38.2,5.74Z"/><polygon class="cls-19_problem-solving-5-2" points="447.22 302.86 452.59 301.01 455.24 308.05 449.31 312.1 447.22 302.86"/><path class="cls-19_problem-solving-5-2" d="M368.32,326.61l-.51-3.12c4.08.65,8.25-.39,11.56-2.86l.31,5.11c-3.42,2.14-7.67,2.47-11.37.87Z"/><path class="cls-15_problem-solving-5-2" d="M368.19,325.65l-12.71,4.59s-7.06-1.73-8.48,2.24c-.93,2.04-1.02,4.36-.25,6.46,0,0,3.33,2.99,11.64,1.25s21.89-5.98,21.89-5.98l-.51-8.31c-3.7,1.68-7.96,1.59-11.58-.25Z"/><path class="cls-15_problem-solving-5-2" d="M453.6,299.4s-3.19,1.31-2.83,2.15,1.5-1.02,4.35,6.53l-1.83,1.34,3.98,8.5c-2.12,1.6-3.28,4.18-3.07,6.83.4,2.07,4.07,2.35,7,1.34s4.21-7.54,4.21-7.54c0,0-1.92-15.65-5.88-18.25-3.95-2.61-5.94-.89-5.94-.89Z"/><path class="cls-20_problem-solving-5-2 targetColor" d="M357.77,283.5l-60,18.91-27.51-22.84c-11.09,11.33-24.43,2.83-22.6-3.78s14.13-4.22,14.13-4.22l-16.67-14,31.19-7.85c.19,1.1,1.5,6.43,9.07,6.85,8.47.49,10.39-6.41,3.36-9.78l19.78-5.15,49.25,41.87Z" style="fill: rgb(255, 186, 8);"/><path class="cls-1_problem-solving-5-2" d="M341.74,276.07c-.41.11-.8.29-1.14.54-.32.31-.61.65-.85,1.02-1.11,1.38-2.91,1.92-4.54,2.57-1.85.73-3.61,1.68-5.23,2.83-.24.14-.44.35-.55.61-.25.8.99,1.2,1.41,1.92.25.56.15,1.21-.25,1.67-.4.44-.88.81-1.41,1.08-2.85,1.74-5.33,4.01-7.33,6.68,9.04-4.7,18.47-8.63,28.18-11.74.76-.19,1.47-.53,2.09-1,.63-.49.88-1.33.64-2.09-.16-.37.41-.46.11-.75-1.46-1.3-3.91-3.48-5.86-5.07.03.01-3.72,1.22-5.26,1.73Z"/><path class="cls-20_problem-solving-5-2 targetColor" d="M421.46,201.63c-3.3-3.88-9.11-4.35-12.99-1.06-1.32,1.12-2.3,2.59-2.82,4.24-.54,1.73-1.11,3.8-1.67,6.35-2.99,13.78-16.53,43.74-16.53,43.74l-39.32,21.24,10.76,13.78,46.05-22.68s20.39-45.05,20.03-53.64c.12-4.26-1.11-8.44-3.51-11.96Z" style="fill: rgb(255, 186, 8);"/><path class="cls-19_problem-solving-5-2" d="M351.5,278.06c-2.84.76-5.74,1.28-8.67,1.55-4.48.81-8.87,2.06-13.1,3.74,0,0,.45,3.06,2.83,2.64,2.38-.43,5.28-.62,5.28-.62l-8.47,5.08-7.8,4.99s2.03,2.35,4.26,1.3c1.2.87,2.55,1.49,3.98,1.85,2.23.69,4.4,1.56,6.5,2.58,1.54.37,3.11.61,4.69.71.46-.2,17.15-10.41,17.26-12.53l-6.75-11.28Z"/></g><g id="character_1-2_problem-solving-5-2"><path class="cls-15_problem-solving-5-2" d="M110.85,369.7l-1.81,5.13,14.83,6.94s13.78,1.73,18.02-1.9c2.57-2.27,4.45-5.21,5.42-8.5l-36.46-1.67Z"/><path class="cls-20_problem-solving-5-2 targetColor" d="M149.75,321.59s17.48-.31,22.59,6.04-13.26,25.14-13.26,25.14l-42.38,2.99,33.05-34.17Z" style="fill: rgb(255, 186, 8);"/><path class="cls-13_problem-solving-5-2" d="M149.75,321.59s17.48-.31,22.59,6.04-13.26,25.14-13.26,25.14l-42.38,2.99,33.05-34.17Z"/><path class="cls-20_problem-solving-5-2 targetColor" d="M149.12,348.84s36.72,3.31,43.1,5.67c12.07,4.54,8.48,21.49,2.99,23.3-4.55,1.53-39.18,14.2-50.25,18.26-1.91.69-4.02-.23-4.81-2.1l-3.8-9.05c-.82-1.95.1-4.2,2.05-5.02.12-.05.25-.1.38-.14l21.78-6.48s-32.34,3.26-38.87,1.81c-14.46-3.17-28.73-21.68-21.13-37.84,7.59-16.16,48.55,11.59,48.55,11.59Z" style="fill: rgb(255, 186, 8);"/><path class="cls-14_problem-solving-5-2" d="M149.12,348.84s36.72,3.31,43.1,5.67c12.07,4.54,8.48,21.49,2.99,23.3-4.55,1.53-39.18,14.2-50.25,18.26-1.91.69-4.02-.23-4.81-2.1l-3.8-9.05c-.82-1.95.1-4.2,2.05-5.02.12-.05.25-.1.38-.14l21.78-6.48s-32.34,3.26-38.87,1.81c-14.46-3.17-28.73-21.68-21.13-37.84,7.59-16.16,48.55,11.59,48.55,11.59Z"/><path class="cls-15_problem-solving-5-2" d="M220.13,272.58l14.35,5.67v8.51s-17.19.37-17.19,7.82,16.21,13.3,27.08,3.35l24.74,14.2-.9,7.28-75.23,27.22-43.1-52.59v-8.5l70.25-12.95Z"/><path class="cls-20_problem-solving-5-2 targetColor" d="M220.13,264.19l14.38,14.03s-17.19.37-17.19,7.83,16.21,13.3,27.08,3.34l24.74,22.68-75.37,26.57-43.89-52.96,29.57-9.05s-9.4-6.32-.37-10.55c1.67-.82,3.48-1.31,5.34-1.44,7.09-.28,8.22,3.37,9.16,7.37v.31l26.54-8.14Z" style="fill: rgb(255, 186, 8);"/><path class="cls-1_problem-solving-5-2" d="M161.83,282.02h0s11.96,26,17.65,30.31c3.17,2.41,25.08,9.55,43.69,10.56,1.74.1,7.18-4.95,9.76-4.28,3.74.98-.68,4.34.19,4.38,11.21.53,17.42-4.38,17.42-4.38l-59.05,21.32-39.57-56.74,9.92-1.17Z"/><path class="cls-17_problem-solving-5-2" d="M219.45,328.57c2-2.62,4.3-5.01,6.83-7.12,2.08-1.24,4.31-2.19,6.64-2.83,0,0,1.05,3.18-.75,3.78s-2.83,3.74-2.83,3.74c0,0,13.05,2.5,14.63,1.73s1.73,1.67-1.35,2.13-2.99,4.87-5.08,5.23-5.2,2.35-8.28,3.09c-3.57.31-7.16.14-10.69-.49l.87-9.25Z"/><path class="cls-20_problem-solving-5-2 targetColor" d="M159.57,290.84c3.46-18.84-4.98-37.87-21.27-47.95-2.83-1.94-6.08-3.19-9.49-3.66-13.67-.79-28.25,98-28.25,98,0,0,6.59,19.14,26.52,20.98,18.42,1.7,22.01-9.38,22.01-9.38l10.47-57.99Z" style="fill: rgb(255, 186, 8);"/><path class="cls-12_problem-solving-5-2" d="M159.57,290.84c3.46-18.84-4.98-37.87-21.27-47.95-2.83-1.94-6.08-3.19-9.49-3.66-13.67-.79-28.25,98-28.25,98,0,0,6.59,19.14,26.52,20.98,18.42,1.7,22.01-9.38,22.01-9.38l10.47-57.99Z"/><path class="cls-17_problem-solving-5-2" d="M128.82,239.21s2-14.91,2.83-24.6c.82-9.7,4.01-22.68,20.28-20.98s16.27,26.31,11.74,36.63-10.53,9.98-10.53,9.98c0,0-8.1-1.79-7.83,7.97l-16.49-8.99Z"/><path class="cls-15_problem-solving-5-2" d="M134.97,191.54c-2.37,2.27-4.09,5.14-4.97,8.31-.73,2.57-1.23,5.19-1.5,7.85l1.67-1.81c-.09,4.55-.44,9.09-1.05,13.61-.61,4.21-.86,8.46-.75,12.71l2.99-.14,3.74,4.68,4.21-2.84,3.16-1.67,2.83-6.95c-1.41-1.04-1.97-2.89-1.35-4.53,1.05-2.83,3.61-3.49,4.21-1.82.46,2.09.71,4.21.75,6.35l4.49-12.71s2.83-3.95,5.29-1.22c1.47,1.65,3.34,2.89,5.42,3.63l-1.5-4.25,4.07,1.05-.31-4.84,2.99,2.12s1.35-7.85-1.22-11.34-12.64-17.37-33.15-6.17Z"/><path class="cls-20_problem-solving-5-2 targetColor" d="M219.87,326.05l-33.3-3.6c-9.23-1.77-16.3-9.23-17.57-18.54l-12.31-37.56c-1.52-4.81-5.64-8.34-10.62-9.1-6.29-.94-12.16,3.4-13.1,9.69-.26,1.71-.12,3.46.39,5.11l12.71,45.35c1.23,10.26,9.48,18.26,19.77,19.19l52.22,6.81,1.81-17.35Z" style="fill: rgb(255, 186, 8);"/><path class="cls-10_problem-solving-5-2" d="M219.87,326.05l-33.3-3.6c-9.23-1.77-16.3-9.23-17.57-18.54l-12.31-37.56c-1.52-4.81-5.64-8.34-10.62-9.1-6.29-.94-12.16,3.4-13.1,9.69-.26,1.71-.12,3.46.39,5.11l12.71,45.35c1.23,10.26,9.48,18.26,19.77,19.19l52.22,6.81,1.81-17.35Z"/><path class="cls-17_problem-solving-5-2" d="M137.68,381.18l-9.8,2.24,3.92,11.34,10.26-2.37s2.74-8.77-4.38-11.21Z"/><path class="cls-15_problem-solving-5-2" d="M123.87,381.78s6.41-1.36,7.48.82-2.35,2.04-1.67,5.14c.57,2.35,1.28,4.67,2.12,6.94l3.16-.71.65,3.74c.29,1.32,1.47,2.26,2.83,2.24,7.4.43,6.41,7.14,3.81,7.39l-9.58.75-5.06-4.26c-.61-.42-1.08-1-1.38-1.67-1.85-3.63-7.52-17.12-2.35-20.38Z"/><path class="cls-15_problem-solving-5-2" d="M175.16,270.4l.17,7.48,4.15-1.28s-4.32-3-4.32-6.2Z"/></g><g id="light_bulb_problem-solving-5-2"><path class="cls-6_problem-solving-5-2 targetColor" d="M279.67,150.6c-.49.71-.91,1.46-1.27,2.24-2.15,4.59-9.4,21.01-10.47,35.23-.44,7.17-6.17,12.87-13.34,13.27l-12.96.75-4.24.22c-7.04.42-13.31-4.42-14.69-11.34-2.65-13.1-8.31-33.11-19.29-41.95,0,0-48.42-44.34-16.13-93.78,2.17-3.34,4.6-6.51,7.26-9.47,33.89-37.51,89.82-20.42,103.26,14.42,13.44,34.84-12.79,82.89-18.14,90.41Z" style="fill: rgb(255, 186, 8);"/><path class="cls-20_problem-solving-5-2 targetColor" d="M269.78,207.47c-1.13,2.83-2.43,4.19-1.3,6.07s4.38,6.92-12.12,9.16c-3.42.47-6.86.75-10.31.82h-5.4l-3.16-.14c-3.61-.22-6.53-.59-8.47-.9-2.14-.31-4.04-1.52-5.23-3.32-.59-1.36-.36-2.94.6-4.08.88-.82.93-2.2.11-3.08h0c-.22-.24-.49-.42-.79-.54-1.86-1.74-1.98-4.65-.28-6.55.4-.42.74-.9.99-1.42.72-1.65.47-3.56-.65-4.96l-.46-.56c-.63-.85-1.09-1.82-1.35-2.84-.56-1.43-.3-3.06.68-4.25,1.38,6.91,7.65,11.75,14.68,11.33l4.24-.25c.12-.16.22-.35.28-.54.75-1.81-.93-3.91-.08-6.73l3.18-.14c7.83-.47,15.56-1.98,22.99-4.49,1.67,1.38,2.14,3.75,1.13,5.67-.29.63-.49,1.3-.59,1.98-.19,1.44.05,2.9.7,4.19.07.16.16.31.25.46.92,1.55,1.05,3.45.34,5.11Z" style="fill: rgb(255, 186, 8);"/><path class="cls-15_problem-solving-5-2" d="M222.68,190.86c14.79-3.83,30.27-4.11,45.19-.82,0,0-24.49,10.03-45.19.82Z"/><path class="cls-11_problem-solving-5-2" d="M244.36,223.25c-1.23.24-2.49.33-3.74.25l-3.17-.14c-3.61-.22-6.52-.59-8.47-.9-2.14-.31-4.04-1.52-5.23-3.32-.59-1.36-.36-2.94.59-4.08.54-.52.79-1.27.66-2-.14-.73-.64-1.35-1.34-1.62-1.86-1.74-1.98-4.65-.28-6.55,1.72-1.73,1.87-4.48.34-6.38-.83-.98-1.43-2.14-1.75-3.38-.56-1.43-.3-3.06.67-4.25,7.09,2.71,14.65,3.95,22.23,3.63l.37.17s-2.83,1.08-2.09,3.54,1.81,6.91-.62,9.81,2.24,3.69,1.36,6.94v.31c-.36.97-.63,1.97-.82,2.99-.51,2.56-.27,4.75,1.29,4.97Z"/><path class="cls-21_problem-solving-5-2" d="M244.93,194.48c-7.59.33-15.16-.91-22.25-3.63-2.63-13.01-8.28-33.03-19.26-41.86,0,0-48.42-44.34-16.13-93.78,2.17-3.34,4.6-6.51,7.26-9.47l4.35-.4s28.96-15.26,41.24,1.44c12.28,16.7-14.52,35.57-15.93,66.07-1.41,30.5,33.48,36.14,20.73,81.62Z"/><path class="cls-5_problem-solving-5-2" d="M265.97,215.31c-2.09,1.36-9.61,3.92-22.99,2.99-6.28-.5-12.49-1.6-18.55-3.29.88-.82.93-2.2.11-3.08h0c-.22-.24-.49-.42-.79-.54,6.5,2.23,13.31,3.42,20.18,3.54,7.71.22,15.42-.74,22.84-2.83,0,0,2.33,1.17-.8,3.21Z"/><path class="cls-4_problem-solving-5-2" d="M269.16,201.93c-2.51,2.1-12.01,5.98-25.73,4.65-6.44-.23-12.83-1.29-19.01-3.15.72-1.64.47-3.55-.65-4.96l-.46-.57c.9.34,2.43.82,4.49,1.36,4.63,1.17,9.36,1.92,14.13,2.24h2.2c8.3.33,16.59-.98,24.38-3.86-.23,1.46,0,2.95.66,4.28Z"/><path class="cls-18_problem-solving-5-2" d="M266.1,118.89l-.9-.61c1.36-4.12,1.84-8.48,1.41-12.81-1.08-9.15-7.54-14.73-18.16-15.7-16.3-1.55-22.75,6.86-25.14,12.01-6.91,14.38-.66,37.65,9.3,48.1,12.27,12.81,7.54,36.97,5.8,44.1-.06.17-.1.35-.11.54v.48l2.5.85.18-.7c1.49-5.71,2.35-11.56,2.57-17.45.44-12.71-2.6-22.99-8.83-29.71-9.19-9.64-15.17-31.88-8.82-45.05,3.85-7.89,11.62-11.52,22.48-10.51,11.82,1.12,15.09,7.9,15.74,13.37.34,3.74-.07,7.52-1.2,11.1-2.64-1.33-5.67-1.67-8.54-.96-5.6,1.54-9.13,7.34-11.12,11.92-1.01,2.32-.55,5.03,1.17,6.88,1.68,1.82,4.27,2.48,6.62,1.7,5.05-1.79,10.31-7.98,13.27-15.53l.29.2c8.22,5.79,2.35,14.7-4.4,25.04-4.81,7.24-10.77,16.26-11.41,25.14-.75,7.95-.4,14.24.13,22.25l.04.64h2.69l-.04-.75c-.52-7.99-.84-14.2-.13-21.93.58-8.13,6.07-16.5,10.91-23.92l.22-.34c7.01-10.79,13.64-21.03,3.47-28.34ZM250.07,133.84c-1.33.46-2.8.07-3.74-.98-1.01-1.07-1.27-2.64-.67-3.98,1.42-3.3,4.53-9.05,9.37-10.39.69-.19,1.41-.28,2.12-.28,1.65.06,3.27.47,4.74,1.23-2.82,7.12-7.61,13.01-11.82,14.43h0ZM263.66,118.79h0l.12.08-.12-.08Z"/></g></svg>