<svg id="_0113_brainstorming" xmlns="http://www.w3.org/2000/svg" viewBox="0 0 500 500" data-imageid="brainstorming-49" imageName="Brainstorming" class="illustrations_image" style="width: 158px;"><defs><style>.cls-1_brainstorming-49{opacity:.45;}.cls-1_brainstorming-49,.cls-2_brainstorming-49,.cls-3_brainstorming-49,.cls-4_brainstorming-49{fill:#fff;}.cls-5_brainstorming-49{fill:#f4a28c;}.cls-6_brainstorming-49,.cls-7_brainstorming-49,.cls-8_brainstorming-49,.cls-9_brainstorming-49{fill:#a5a5a5;}.cls-10_brainstorming-49{fill:#000001;opacity:.03;}.cls-7_brainstorming-49{opacity:.39;}.cls-3_brainstorming-49{opacity:.21;}.cls-8_brainstorming-49{opacity:.18;}.cls-11_brainstorming-49{opacity:.08;}.cls-12_brainstorming-49{fill:#e6e6e6;}.cls-9_brainstorming-49{opacity:.32;}.cls-13_brainstorming-49{opacity:.2;}.cls-13_brainstorming-49,.cls-14_brainstorming-49{fill:#ffd200;}.cls-15_brainstorming-49{fill:#ce8172;opacity:.31;}.cls-4_brainstorming-49{opacity:.46;}.cls-16_brainstorming-49{fill:#24285b;}.cls-17_brainstorming-49{fill:#68e1fd;}</style></defs><g id="board_brainstorming-49"><rect class="cls-12_brainstorming-49" x="108.53" y="73.89" width="313.6" height="266.93"/><path class="cls-11_brainstorming-49" d="m379.58,149.19s-5.25-.49-5.13,10.88c.12,11.37,9.13,19.48,9.13,19.48l-2.31,20.63s-51.72-11.86-58.61,23.5c-6.89,35.36-3.57,61.07-26.36,49.14-22.79-11.93-33.18-60.94-33.18-60.94,0,0-14.67-1.73-9.81,15.21s4.46,80.38,40.15,83.33c35.69,2.95,59.21,8.36,55.15,30.4h76.71v-79.12l-29.24-84.29-3.07-22.15-13.43-6.06Z"/><path class="cls-11_brainstorming-49" d="m123.39,221.36s10.58-3.22,11.95,12.7,13.66,24.56,17.3,41.41c3.64,16.84,28.38-1.13,39.91,23.11,0,0,19.36-18.1,33.88-7.17,14.52,10.93-14.55,11.93-14.55,11.93l-12.8,32.18,38.24.5,12.29-42.5,10.39,1.59-9.93,45.72-111.21-1.88-15.46-70.4-8.29-25.67,8.29-21.51Z"/><rect class="cls-7_brainstorming-49" x="243.42" y="208.47" width="39.42" height="6.83"/><rect class="cls-8_brainstorming-49" x="243.42" y="223.68" width="39.42" height="6.83"/><rect class="cls-7_brainstorming-49" x="312.79" y="208.47" width="39.42" height="6.83"/><rect class="cls-8_brainstorming-49" x="312.79" y="223.68" width="39.42" height="6.83"/><rect class="cls-14_brainstorming-49" x="243.42" y="160.07" width="39.42" height="34.66"/><rect class="cls-4_brainstorming-49" x="258.74" y="151.39" width="9.53" height="19.35"/><rect class="cls-16_brainstorming-49" x="172.46" y="160.07" width="39.42" height="34.66"/><rect class="cls-4_brainstorming-49" x="187.78" y="151.39" width="9.53" height="19.35"/><rect class="cls-16_brainstorming-49" x="312.79" y="160.07" width="39.42" height="34.66"/><rect class="cls-4_brainstorming-49" x="328.11" y="151.39" width="9.53" height="19.35"/><rect class="cls-7_brainstorming-49" x="172.46" y="208.47" width="39.42" height="6.83"/><rect class="cls-8_brainstorming-49" x="172.46" y="223.68" width="39.42" height="6.83"/><rect class="cls-6_brainstorming-49" x="327.92" y="92.34" width="66.1" height="14.25"/><rect class="cls-2_brainstorming-49" x="207.35" y="92.36" width="143.41" height="14.25"/><circle class="cls-16_brainstorming-49" cx="138.04" cy="99.48" r="7.3"/><circle class="cls-17_brainstorming-49 targetColor" cx="159.77" cy="99.48" r="7.3" style="fill: rgb(255, 186, 8);"/><circle class="cls-14_brainstorming-49" cx="180.25" cy="99.48" r="7.3"/></g><ellipse id="sd_brainstorming-49" class="cls-10_brainstorming-49" cx="259.71" cy="435.52" rx="226.23" ry="25.63"/><g id="girl_brainstorming-49"><path class="cls-5_brainstorming-49" d="m172.92,346.56l33.15-54.6s12.38,0,14.42-5.01c1.28-3.13-6.41-3.95-12.35-4.12-4.04-.12-7.95,1.5-10.78,4.39l-40.83,41.8s-7.97,25.01,16.39,17.53Z"/><path class="cls-11_brainstorming-49" d="m172.92,346.56l33.15-54.6s12.38,0,14.42-5.01c1.28-3.13-6.41-3.95-12.35-4.12-4.04-.12-7.95,1.5-10.78,4.39l-40.83,41.8s-7.97,25.01,16.39,17.53Z"/><path class="cls-17_brainstorming-49 targetColor" d="m218.53,371.42s11.94,11.25-3.53,10.8-9.78-12.49,3.53-10.8Z" style="fill: rgb(255, 186, 8);"/><path class="cls-16_brainstorming-49" d="m123.74,243.66s23.13,17.3,12.22,23.97c-10.9,6.67-19.32-25.59-19.32-25.59l7.1,1.62Z"/><path class="cls-5_brainstorming-49" d="m123.63,228.9s1.74,7.34,1.21,12.46c-.21,2.08-2.1,3.61-4.18,3.37-2.58-.3-5.98-1.46-7.38-5.28l-3.18-6.19s-1.86-3.95,1.9-7.59c3.76-3.64,10.8-1.3,11.63,3.22Z"/><polygon class="cls-5_brainstorming-49" points="110.72 237.1 113.03 261.7 126.5 259.45 119.4 242.45 110.72 237.1"/><path class="cls-5_brainstorming-49" d="m116.64,236.45s-.48-2.86-2.6-2.33c-2.13.54-1.46,4.68,1.53,4.64l1.07-2.31Z"/><path class="cls-5_brainstorming-49" d="m124.48,233.58l2.5,2.57c.62.63.36,1.7-.47,1.98l-2.77.96.75-5.51Z"/><path class="cls-16_brainstorming-49" d="m174.01,351.29s46.05-11.68,52.06,8.68c6.01,20.36-64.41,18.35-64.41,18.35l-16.02-12.68,28.37-14.35Z"/><path class="cls-17_brainstorming-49 targetColor" d="m126.5,259.45s26.82,2.73,45.5,24.09c11.1,12.68,6.9,23.25,1.66,29.74-4.5,5.57-5.69,13.14-3.5,19.96l5.55,17.31s-29.65,19.1-48.38,17.1c-18.73-2-77.7-105.24-.83-108.19Z" style="fill: rgb(255, 186, 8);"/><path class="cls-11_brainstorming-49" d="m89.99,281.16s-3.32,10.18-1.52,20c1.8,9.82,11.1,75.13,72.57,57.5l14.67-8.11-15.57-13.16-29.82-31.18-13.04-25.04h-27.3Z"/><path class="cls-12_brainstorming-49" d="m111.05,325.27c-13.18-39.93-72.03-33.38-77.06,8.36s.7,102.57,70.07,110.28c110.35,12.27,127.71-37.57,112.13-63.82s-93-12.46-104.57-52.95c-.18-.63-.37-1.26-.57-1.87Z"/><path class="cls-5_brainstorming-49" d="m202.04,347.77s15.38,3.73,16.49-6.06l-16.8-.89.3,6.95Z"/><path class="cls-5_brainstorming-49" d="m108.54,282.28c-.17-9.25,10.18-15.2,17.89-10.11,5.27,3.48,10.48,10.66,13.61,24.76,6.12,27.57,21.38,39.43,62,43v7.84s-91.86,23.35-93.5-65.49Z"/><path class="cls-16_brainstorming-49" d="m122.1,230.69h0c3.82-1.62,4.56-6.78,1.29-9.33-.75-.59-1.65-1.12-2.71-1.57-6.41-2.67-21.76-.8-20.76,13.79,1,14.58-23.33,47.73-1.33,56.74,21.99,9.01,40.27-2.89,40.27-13.57s-20.85-13.24-22.22-22.58c-.56-3.81-1.09-7.85-1.53-11.3-.66-5.17,2.2-10.14,7-12.18Z"/><rect class="cls-14_brainstorming-49" x="192.17" y="335.52" width="47.61" height="6.85"/><polygon class="cls-14_brainstorming-49" points="233.52 338.94 248.9 288.43 253.32 289.42 239.78 342.36 233.52 338.94"/><path class="cls-1_brainstorming-49" d="m72.3,387.4c-7.76-7.08-19.92.67-16.56,10.63,4.74,14.08,15.67,27.89,39.67,31.98,53.9,9.17,48.64-10.77,45.17-19.48-2.84-7.1-38.54,3.98-68.27-23.13Z"/></g><g id="boy_brainstorming-49"><path class="cls-5_brainstorming-49" d="m270.78,221.95s.85-13.9-8.07-17.39c-8.92-3.49,0,21.8,0,21.8l8.07-4.41Z"/><g id="boy-2_brainstorming-49"><path class="cls-17_brainstorming-49 targetColor" d="m373.72,204.08c-6.7-7.85-18.87-7.85-25.83-.23-7.87,8.62-17.01,23.2-17.66,44.83-1.16,38.47-28.33,34.65-56.56-28.31l-13.67,7.47s37.4,124.36,94.56,53.84c34.79-42.93,29.02-66.07,19.17-77.61Z" style="fill: rgb(255, 186, 8);"/><path class="cls-11_brainstorming-49" d="m367.81,198.62c-4.7-3.43-11.1-3.13-15.42.76-8.37,7.54-21.38,23.34-22.16,49.3-1.16,38.47-28.33,34.65-56.56-28.31l-13.67,7.47s37.4,124.36,94.56,53.84c41.53-51.24,25.26-74.29,13.25-83.06Z"/><path class="cls-5_brainstorming-49" d="m384.75,156.08s-1.18,8.98.07,15.04c.51,2.46,2.95,4.06,5.4,3.52,3.04-.67,6.96-2.47,8.18-7.21l3.05-7.78s1.74-4.94-3.2-8.84c-4.94-3.89-13.07-.24-13.51,5.26Z"/><polygon class="cls-5_brainstorming-49" points="400.91 161.07 404.27 190.56 387.89 191.25 392.02 169.51 400.91 161.07"/><path class="cls-16_brainstorming-49" d="m386.98,156.55c1.58.15,4.48.27,8.37-.27,0,0-3,3.82-.37,8.28,2.64,4.46,7.31,2.78,7.31,2.78l.37-11.63c.21-3.39-1.43-6.63-4.31-8.43-1.18-.73-2.48-1.47-3.8-2.07-3.29-1.49-8.29.52-11.19-1.87-1.27-1.05-3.21-.34-3.52,1.28-.68,3.51-.29,9.11,4.4,11.25.86.39,1.79.58,2.73.68Z"/><path class="cls-5_brainstorming-49" d="m394.02,164.25s.22-3.48,2.83-3.1c2.61.38,2.32,5.42-1.26,5.73l-1.57-2.63Z"/><path class="cls-5_brainstorming-49" d="m384.3,161.77l-2.67,3.37c-.66.83-.23,2.07.81,2.31l3.43.8-1.56-6.49Z"/><path class="cls-15_brainstorming-49" d="m390.91,174.23s3.05-.48,5.44-2.92c0,0-.47,5.41-6.67,10.5l1.23-7.58Z"/><path class="cls-17_brainstorming-49 targetColor" d="m370.98,190.9s60.88-13.63,82.68-1.4c21.8,12.23-21,127.44-21,127.44l-67.22-2.13s-58.81-112.21,5.53-123.91Z" style="fill: rgb(255, 186, 8);"/><path class="cls-17_brainstorming-49 targetColor" d="m384.57,425.11s-3.13,5.64-8.62,5.22c-5.49-.42-7.77,4.64-3.12,6.81,4.64,2.17,18.22-2.04,18.22-2.04l1.17-9.99h-7.64Z" style="fill: rgb(255, 186, 8);"/><path class="cls-17_brainstorming-49 targetColor" d="m433.82,423.87s2.23,6.05,7.72,6.47c5.49.42,6.97,5.77,2.05,7.21-4.92,1.44-17.69-4.8-17.69-4.8l.37-10.05,7.55,1.17Z" style="fill: rgb(255, 186, 8);"/><path class="cls-11_brainstorming-49" d="m423.84,200.18s-19.23,12.46-9.44,40.92c9.79,28.45,11.38,48.87-11.72,41.74-23.1-7.14-21.4-39-21.4-39l-23.55,3.64-2.27,45.22,10,22.12,58.39-3.67,23.79-6.08,8.88-29.82-16.16-50.53-16.51-24.53Z"/><path class="cls-16_brainstorming-49" d="m365.45,314.81l17.19,110.31h11.24s-10.41-82.96,7.77-92.97c18.18-10.02,21.76,92.97,21.76,92.97l11.92-.96-.13-113.73-69.76,4.38Z"/><path class="cls-17_brainstorming-49 targetColor" d="m435.71,185.87s37.87-6.38,37.87,53.22-9.1,112.63-96.51,59.48l6.64-10.15s47.07,20.73,57.09,2.52c10.02-18.21-39.33-94.96-5.1-105.07Z" style="fill: rgb(255, 186, 8);"/><path class="cls-4_brainstorming-49" d="m435.71,185.87s37.87-6.38,37.87,53.22-9.1,112.63-96.51,59.48l6.64-10.15s47.07,20.73,57.09,2.52c10.02-18.21-39.33-94.96-5.1-105.07Z"/><rect class="cls-14_brainstorming-49" x="339.95" y="242.17" width="33.06" height="49.49" transform="translate(-54.35 95.03) rotate(-14.12)"/><path class="cls-5_brainstorming-49" d="m383.71,288.43s-15.77-12.5-18.27-2.94c-2.49,9.56,13.89,9.62,13.89,9.62l4.37-6.67Z"/></g></g><g id="lamp_2_brainstorming-49"><circle class="cls-13_brainstorming-49" cx="451.64" cy="64.95" r="28.81"/><path class="cls-14_brainstorming-49" d="m469.52,61.9c-1.02-10.04-10.06-17.32-20.11-16.14-9.6,1.12-16.7,9.74-15.95,19.37.39,5.01,2.77,9.36,6.29,12.37,2.85,2.44,4.58,5.94,4.96,9.67l.06.62,17.83-1.82-.05-.46c-.39-3.8.8-7.56,3.17-10.56,2.81-3.56,4.29-8.18,3.8-13.05Z"/><path class="cls-2_brainstorming-49" d="m449.04,87.38c-.3.03-.59-.16-.67-.46l-6.09-22.41c-.09-.34.11-.68.44-.77.34-.09.68.11.77.44l6.09,22.41c.09.34-.11.68-.44.77-.03,0-.07.02-.1.02Z"/><path class="cls-2_brainstorming-49" d="m458.43,86.42s-.07,0-.1,0c-.35-.02-.61-.32-.59-.67l1.44-23.17c.02-.35.32-.61.67-.59.35.02.61.32.59.67l-1.44,23.17c-.02.31-.26.56-.56.59Z"/><rect class="cls-16_brainstorming-49" x="444.15" y="84.04" width="20.51" height="16.19" transform="translate(-7 46.57) rotate(-5.82)"/><path class="cls-2_brainstorming-49" d="m453.82,68.01c-.79.08-1.61-.32-2.43-1.19-.34-.36-.65-.51-.91-.46-.6.12-1.19,1.17-1.38,1.66-.13.32-.49.49-.81.36-.32-.13-.49-.49-.36-.81.09-.22.87-2.16,2.31-2.44.49-.1,1.25-.03,2.06.83.39.42.96.89,1.47.79.57-.12,1-.97,1.11-1.26.12-.33.48-.5.81-.38.33.12.5.48.38.8-.06.18-.67,1.78-2.03,2.07-.07.02-.14.03-.21.03Z"/><ellipse class="cls-3_brainstorming-49" cx="456.81" cy="53.21" rx="4.4" ry="5.63" transform="translate(267.82 472.48) rotate(-72.38)"/><path class="cls-9_brainstorming-49" d="m412.7,172.2c-.51,0-.95-.39-1-.92-.05-.55.36-1.03.91-1.08.02,0,.72-.06,1.95-.23.54-.08,1.05.3,1.13.85s-.3,1.05-.85,1.13c-1.31.18-2.06.25-2.06.25-.03,0-.06,0-.08,0Zm11.82-2.29c-.44,0-.84-.29-.96-.74-.15-.53.17-1.08.7-1.23.62-.17,1.25-.35,1.9-.55.53-.16,1.09.14,1.25.67.16.53-.14,1.09-.67,1.25-.66.2-1.31.39-1.95.56-.09.02-.18.04-.27.04Zm11.29-4.1c-.38,0-.74-.21-.91-.58-.23-.5-.01-1.1.49-1.33.59-.27,1.18-.56,1.77-.86.49-.25,1.1-.05,1.34.44.25.49.05,1.09-.44,1.34-.61.31-1.22.6-1.83.89-.14.06-.28.09-.42.09Zm10.26-6.18c-.3,0-.59-.13-.79-.39-.34-.44-.26-1.06.17-1.4.51-.4,1.02-.81,1.51-1.23.42-.36,1.05-.31,1.41.11.36.42.31,1.05-.11,1.41-.52.45-1.05.88-1.58,1.29-.18.14-.4.21-.61.21Zm8.23-8.65c-.19,0-.39-.06-.56-.17-.46-.31-.57-.93-.26-1.39.36-.53.71-1.07,1.05-1.63.28-.47.9-.63,1.37-.34.47.29.63.9.34,1.37-.36.59-.72,1.17-1.11,1.73-.19.28-.51.44-.83.44Zm4.9-10.86c-.08,0-.17,0-.25-.03-.54-.14-.86-.68-.72-1.22.16-.62.3-1.25.43-1.89.11-.54.63-.9,1.17-.79.54.11.9.63.79,1.17-.13.68-.28,1.35-.45,2-.12.45-.52.75-.97.75Zm1.12-11.88c-.53,0-.97-.42-1-.95-.03-.64-.07-1.29-.13-1.96-.05-.55.36-1.03.91-1.08.54-.05,1.03.36,1.08.91.06.69.1,1.37.13,2.03.03.55-.4,1.02-.95,1.05-.02,0-.03,0-.05,0Zm-1.86-11.83c-.45,0-.85-.3-.97-.75-.16-.63-.33-1.26-.52-1.9-.15-.53.15-1.08.68-1.24.54-.15,1.09.15,1.24.68.19.66.37,1.31.54,1.96.14.53-.18,1.08-.72,1.22-.08.02-.17.03-.25.03Z"/></g><g id="lamp_1_brainstorming-49"><circle class="cls-13_brainstorming-49" cx="62.05" cy="86.19" r="28.81"/><path class="cls-14_brainstorming-49" d="m80.01,83.6c-.71-10.06-9.51-17.63-19.59-16.77-9.63.82-16.99,9.21-16.55,18.86.23,5.02,2.47,9.44,5.89,12.56,2.77,2.52,4.39,6.08,4.65,9.82l.04.62,17.88-1.25-.03-.46c-.27-3.81,1.04-7.53,3.5-10.45,2.92-3.47,4.55-8.04,4.21-12.92Z"/><path class="cls-2_brainstorming-49" d="m58.73,108.41c-.3.02-.58-.18-.66-.48l-5.38-22.59c-.08-.34.13-.68.47-.76.34-.08.68.13.76.47l5.38,22.59c.08.34-.13.68-.47.76-.03,0-.07.01-.1.02Z"/><path class="cls-2_brainstorming-49" d="m68.15,107.75s-.07,0-.1,0c-.35-.03-.6-.34-.57-.69l2.17-23.12c.03-.35.34-.6.69-.57.35.03.6.34.57.69l-2.17,23.12c-.03.31-.28.55-.58.57Z"/><rect class="cls-16_brainstorming-49" x="53.69" y="105.24" width="20.51" height="16.19" transform="translate(-7.77 4.75) rotate(-4.01)"/><path class="cls-2_brainstorming-49" d="m64.12,89.2c-.8.06-1.6-.37-2.39-1.26-.33-.37-.63-.53-.89-.49-.61.1-1.23,1.13-1.43,1.62-.14.32-.5.47-.83.33-.32-.14-.47-.51-.33-.83.09-.22.94-2.13,2.39-2.37.5-.08,1.25,0,2.04.89.38.43.93.92,1.44.83.58-.1,1.03-.94,1.15-1.22.13-.32.49-.48.82-.35.32.13.48.49.36.81-.07.18-.72,1.76-2.09,2-.07.01-.14.02-.21.03Z"/><ellipse class="cls-3_brainstorming-49" cx="67.59" cy="74.51" rx="4.4" ry="5.63" transform="translate(-25.16 113.45) rotate(-70.57)"/><path class="cls-9_brainstorming-49" d="m104.97,216.9c-.05,0-.1,0-.15-.01-.67-.1-1.34-.22-1.99-.33-.54-.1-.91-.62-.81-1.16.1-.54.61-.91,1.16-.81.64.11,1.29.22,1.95.32.55.08.92.6.83,1.14-.08.49-.5.85-.99.85Zm-11.67-2.68c-.1,0-.2-.02-.3-.05-.65-.21-1.29-.42-1.93-.64-.52-.18-.8-.75-.62-1.27.18-.52.75-.8,1.27-.62.61.21,1.23.42,1.87.62.53.17.82.73.65,1.25-.13.43-.53.7-.95.7Zm-11.01-4.69c-.17,0-.33-.04-.49-.13-.6-.33-1.19-.68-1.76-1.03-.47-.29-.62-.9-.33-1.37.29-.47.9-.62,1.38-.33.55.34,1.11.67,1.69.99.48.27.65.88.38,1.36-.18.33-.52.51-.87.51Zm-9.63-7.08c-.25,0-.5-.09-.69-.28-.49-.48-.97-.96-1.44-1.45-.38-.4-.36-1.03.04-1.41.4-.38,1.03-.36,1.41.04.44.47.9.93,1.38,1.39.4.38.41,1.02.03,1.41-.2.2-.46.31-.72.31Zm-7.38-9.4c-.34,0-.68-.18-.87-.5-.34-.59-.67-1.18-.99-1.78-.26-.49-.07-1.09.42-1.35.49-.26,1.09-.07,1.35.42.3.58.62,1.15.95,1.71.28.48.12,1.09-.36,1.37-.16.09-.33.14-.5.14Zm-4.68-11.01c-.43,0-.83-.28-.96-.72-.19-.65-.37-1.31-.54-1.97-.13-.54.19-1.08.72-1.21.54-.13,1.08.19,1.21.72.16.63.33,1.26.52,1.89.16.53-.15,1.09-.68,1.24-.09.03-.19.04-.28.04Zm-2.18-11.79c-.51,0-.95-.39-1-.91-.06-.68-.11-1.35-.16-2.02-.04-.55.38-1.03.93-1.06.54-.03,1.03.38,1.06.93.04.65.09,1.31.15,1.97.05.55-.35,1.04-.9,1.09-.03,0-.06,0-.09,0Zm-.16-11.99s-.04,0-.06,0c-.55-.03-.97-.5-.94-1.06.04-.68.08-1.35.14-2.02.04-.55.54-.96,1.08-.92.55.04.96.52.92,1.08-.05.65-.1,1.31-.13,1.97-.03.53-.47.94-1,.94Zm1.42-11.91c-.06,0-.12,0-.18-.02-.54-.1-.91-.62-.81-1.16.12-.68.25-1.34.37-1.99.11-.54.64-.89,1.17-.79.54.11.89.63.79,1.18-.12.63-.25,1.28-.37,1.95-.09.48-.51.82-.98.82Zm2.78-11.68c-.1,0-.19-.01-.29-.04-.53-.16-.83-.72-.67-1.25.38-1.26.63-1.95.63-1.95.18-.52.75-.79,1.28-.61.52.19.79.76.61,1.28,0,.01-.24.67-.6,1.86-.13.43-.53.71-.96.71Z"/></g></svg>