<svg width="487" height="358" viewBox="0 0 487 358" fill="none" xmlns="http://www.w3.org/2000/svg">
<path opacity="0.24" d="M133.62 3.94978C106.27 11.6998 85.0895 35.2698 75.7895 62.0898C69.1795 81.1698 67.7595 102.19 57.7495 119.72C47.8295 137.08 30.5995 149.01 18.8395 165.21C-4.47048 197.24 -3.04048 241.44 8.45952 279.35C13.8795 297.23 21.6795 315.02 35.3595 327.78C51.3495 342.63 73.7395 348.87 95.5295 350.03C117.32 351.19 139.08 347.78 160.78 345.86C181.78 344.02 202.99 343.56 223.9 346.27C240.43 348.41 256.62 352.5 273.1 354.87C310.61 360.28 349.05 356.67 385.87 347.65C399.73 344.26 414.33 339.48 423.06 328.2C435.06 312.7 431.99 290.87 435.01 271.5C441.88 227.51 481.77 193.48 486.19 149.18C489.79 113.2 468.48 78.7098 440.95 55.2198C424.15 40.8798 404.21 29.3098 382.32 26.3798C366.66 24.2798 350.599 26.6498 335.109 23.5898C316.679 19.9398 300.13 10.0198 281.51 6.46978C268.69 4.02978 256.91 5.02978 244.1 6.34978C207.35 10.1298 169.71 -6.28022 133.61 3.96978L133.62 3.94978Z" fill="#FFBA08"/>
<path opacity="0.24" d="M66.12 294.199C65.03 294.309 64 294.739 63.17 295.439C60.56 298.149 65.21 301.819 68.89 302.499C79.62 304.499 90.59 304.749 101.51 304.999C131.67 305.659 161.83 306.239 191.99 306.739C202.27 306.909 212.98 306.969 222.22 302.489C220.58 300.089 218.35 298.139 215.74 296.849L256.41 296.589C259.1 296.589 262.02 296.639 264.09 298.329C266.16 300.019 266.36 304.019 263.86 304.989C306.57 312.949 350.34 313.359 393.18 306.199C397.53 305.469 403.23 302.619 401.81 298.419C400.8 295.429 396.89 294.839 393.73 294.769C307.51 292.739 221.27 290.949 135.06 288.569C123.41 288.219 111.76 288.509 100.15 289.439C89.03 290.399 77.14 294.199 66.11 294.199H66.12Z" fill="#FFBA08"/>
<path d="M281.449 209.4C262.009 228.45 270.089 254.52 270.139 266.11C270.139 269.12 279.999 274.75 281.449 261.26C281.539 260.48 282.669 225.81 308.989 227.51C318.929 228.15 331.449 215.16 323.579 202.73C317.579 193.25 287.499 203.5 281.449 209.4Z" fill="#231F20"/>
<path d="M271.92 268.46C272.52 270.71 271.55 273.05 270.68 275.2C269.19 278.62 268.16 282.22 267.63 285.91C267.5 286.5 267.57 287.11 267.84 287.65C268.46 288.63 269.95 288.44 271.02 287.98C272.77 287.23 274.31 286.07 275.54 284.61C276.97 282.72 278.12 280.64 278.94 278.42C279.5 277.26 279.91 276.03 280.16 274.76C280.33 272.78 280.12 270.79 279.53 268.9C279.49 268.52 279.3 268.17 279.02 267.92C278.75 267.78 278.45 267.72 278.15 267.75C276.71 267.75 275.31 268.43 273.86 268.43L271.92 268.46Z" fill="#231F20"/>
<path d="M350.78 298.52C360.958 298.52 369.21 295.257 369.21 291.23C369.21 287.204 360.958 283.94 350.78 283.94C340.601 283.94 332.35 287.204 332.35 291.23C332.35 295.257 340.601 298.52 350.78 298.52Z" fill="#FFBA08"/>
<path d="M350.78 298.52C360.958 298.52 369.21 295.257 369.21 291.23C369.21 287.204 360.958 283.94 350.78 283.94C340.601 283.94 332.35 287.204 332.35 291.23C332.35 295.257 340.601 298.52 350.78 298.52Z" fill="url(#paint0_linear_1350_407)"/>
<path d="M345.59 236.82H355.35V286.64C355.35 289.33 353.17 291.5 350.49 291.5C347.8 291.5 345.63 289.32 345.63 286.64V236.82H345.6H345.59Z" fill="#FFBA08"/>
<path d="M345.59 236.82H355.35V286.64C355.35 289.33 353.17 291.5 350.49 291.5C347.8 291.5 345.63 289.32 345.63 286.64V236.82H345.6H345.59Z" fill="url(#paint1_linear_1350_407)"/>
<path d="M387.199 176.82C395.029 182.09 396.669 193.08 395.279 202.43C391.449 228.3 368.669 250.15 342.649 252.89C334.999 253.69 326.619 252.76 320.899 247.67C314.499 242.01 312.879 232.27 315.159 224.02C317.439 215.77 322.989 208.82 329.079 202.83C337.479 194.59 347.139 187.73 357.689 182.51C366.859 177.93 376.789 169.82 387.199 176.81V176.82Z" fill="#FFBA08"/>
<path d="M387.199 176.82C395.029 182.09 396.669 193.08 395.279 202.43C391.449 228.3 368.669 250.15 342.649 252.89C334.999 253.69 326.619 252.76 320.899 247.67C314.499 242.01 312.879 232.27 315.159 224.02C317.439 215.77 322.989 208.82 329.079 202.83C337.479 194.59 347.139 187.73 357.689 182.51C366.859 177.93 376.789 169.82 387.199 176.81V176.82Z" fill="url(#paint2_linear_1350_407)"/>
<path d="M288.909 124.09C287.199 127.44 287.269 131.41 289.079 134.7C289.939 136.38 291.429 137.66 293.229 138.25C294.839 138.56 296.499 138.47 298.059 137.97C301.359 137.18 304.589 136.14 307.729 134.87C309.569 134.12 311.539 133.13 312.339 131.32C312.989 129.84 312.709 128.14 312.339 126.56C311.519 122.78 310.359 118.98 307.989 115.9C306.569 113.99 304.659 112.51 302.469 111.6C299.819 110.55 299.049 110.73 297.809 112.95C295.529 117.2 291.149 119.81 288.909 124.08V124.09Z" fill="#231F20"/>
<path d="M295.68 126.17C288.6 128.88 285.06 136.61 282.45 143.77C278.67 154.06 275.3 164.69 275.03 175.65C274.87 181.87 276.2 188.92 281.41 192.33C285.19 194.79 290.01 194.71 294.51 194.52L310.63 193.93C311.62 193.7 312.61 194.32 312.84 195.31C312.86 195.4 312.87 195.49 312.88 195.58C313.54 197.61 322.23 198.78 322.9 200.8C323.36 202.21 315.85 204.55 316.99 205.49C318.13 206.43 319.89 206.67 321.46 206.8C332.87 207.66 344.35 207.41 355.71 206.06C358.02 205.78 360.52 205.36 362.12 203.68C364.36 201.3 363.86 197.54 363.25 194.33C369.43 193.9 376.12 191.38 378.71 185.76C380.27 182.41 380.08 178.47 379.03 174.93C377.98 171.39 376.12 168.12 374.38 164.87C371.2 159.02 368.2 152.99 363.85 147.95C359.5 142.91 354.14 139.19 348.76 135.44C344.52 132.49 340.23 129.51 335.39 127.73C328.67 125.28 321.7 125.76 314.73 125.03C308.74 124.41 301.3 124 295.66 126.18L295.68 126.17Z" fill="#FFBA08"/>
<path d="M366.9 192.65C358.33 194.46 349.5 194.39 340.75 194.23C331.68 194.11 322.57 193.98 313.65 192.42C312.55 192.35 311.52 191.87 310.75 191.08C310.36 190.43 310.14 189.69 310.11 188.93C309.76 185.91 309.55 182.46 311.67 180.28C312.94 178.97 314.79 178.44 316.55 177.97L336.56 172.52C339.64 171.65 342.98 170.68 344.79 168.04C348.27 162.99 344.13 155.09 348 150.35C345.7 147.65 342.31 146.14 338.77 146.23C335.11 146.16 331.51 147.1 327.97 148.1L299.66 155.83C297.3 156.47 294.87 157.15 292.94 158.65C290.59 160.47 289.25 163.31 288.53 166.19C285.42 178.78 293.11 191.52 305.7 194.63C306.56 194.84 307.42 195 308.3 195.12C310.32 195.37 312.65 195.5 313.89 197.09C314.72 198.13 314.86 199.54 315.47 200.72C317.14 203.9 321.43 204.35 325.04 204.39L346.79 204.63C351.78 204.68 357.23 204.63 361.17 201.57C364.42 199.14 365.39 196.41 366.89 192.64L366.9 192.65Z" fill="url(#paint3_linear_1350_407)"/>
<path d="M295.399 109.11C294.999 109.83 294.439 110.72 294.919 111.39C295.119 111.67 295.459 111.82 295.689 112.05C296.009 112.43 296.189 112.9 296.209 113.4C296.389 115.04 296.129 116.88 297.239 118.13C298.209 119.18 299.809 119.29 301.229 119.31L306.699 119.42C307.109 119.39 307.509 119.48 307.859 119.7C308.129 119.95 308.309 120.28 308.379 120.64C309.409 124.02 309.349 127.76 311.029 130.87C311.399 131.65 311.969 132.31 312.669 132.8C313.209 133.11 313.799 133.31 314.409 133.39C318.399 133.9 322.199 131.52 323.479 127.7C323.659 127.18 323.719 126.62 323.669 126.07C323.509 125.29 323.179 124.55 322.699 123.91C320.899 121.37 319.599 118.52 318.859 115.5C318.579 113.68 318.399 111.84 318.319 110C318.109 107.77 317.649 105.57 316.969 103.43C316.709 102.47 316.279 101.56 315.709 100.75C315.159 100.09 314.539 99.5098 313.839 99.0098C311.389 97.0898 308.819 95.1198 305.789 94.4098C303.429 93.9598 301.009 93.9598 298.659 94.4098C297.739 94.4398 296.869 94.7998 296.199 95.4298C295.409 96.3698 295.739 97.6398 295.999 98.7098C296.219 99.6398 296.309 100.61 296.239 101.56C296.199 104.07 296.639 106.81 295.389 109.09L295.399 109.11Z" fill="#FFB4A3"/>
<path d="M297.08 89.8502C293.78 92.1902 291.91 96.8102 293.6 100.47C293.89 101.17 294.38 101.78 295 102.21C295.77 102.62 296.63 102.83 297.5 102.8C299.55 102.95 301.6 102.65 303.52 101.93C305.45 101.18 307.03 99.7302 307.92 97.8602C308.1 100.58 308.8 103.24 309.98 105.69L312.59 103.56C312.76 103.38 313 103.28 313.24 103.27C313.46 103.31 313.66 103.45 313.78 103.64C314.86 105.07 314.65 107.16 313.74 108.71C313.39 109.16 313.18 109.7 313.12 110.27C313.16 110.61 313.28 110.95 313.46 111.24L316.44 117.03C317.71 120 320.09 122.37 323.07 123.62C326.07 125.45 329.24 126.99 332.54 128.21C335.86 129.42 339.45 129.68 342.91 128.97C346.4 128.21 349.35 125.89 350.91 122.67C351.52 121.14 351.86 119.5 351.88 117.85C352.05 115.89 351.66 113.93 350.78 112.18C349.8 110.65 348.45 109.39 346.85 108.53C343.37 106.42 339.45 105.22 335.81 103.42C334.26 102.73 332.84 101.76 331.63 100.57C330.59 99.2802 329.65 97.9002 328.85 96.4502C325 90.8302 318.62 87.4802 311.81 87.5102C310.75 87.5102 309.68 87.7402 308.64 87.6802C307.45 87.5402 306.26 87.4602 305.06 87.4502C302.22 87.4502 299.45 88.2902 297.08 89.8602V89.8502Z" fill="#231F20"/>
<path d="M283.22 65.86C282.85 67.67 284.09 69.34 285.31 70.78C286.53 72.22 288.02 75.05 289.66 75.74C291.62 76.61 291.76 75.58 291.32 74.1C290.81 72.36 289.08 70.54 287.84 69.29C287.45 68.91 283.24 65.81 283.22 65.86Z" fill="#FFBA08"/>
<path d="M273.92 78.0999C273.55 78.7399 274.41 79.3899 275.11 79.6499C278.84 81.0399 282.73 82.9599 286.6 83.8599C290.01 79.9499 275.95 77.9199 273.91 78.0999H273.92Z" fill="#FFBA08"/>
<path d="M271.64 91.6203C271.14 91.7203 270.54 91.9303 270.46 92.4403C270.38 92.9503 270.99 93.3803 271.52 93.5403C273.33 94.1103 281.77 95.2803 281.61 92.9903C281.31 88.8503 273.63 91.2103 271.64 91.6203Z" fill="#FFBA08"/>
<path d="M324.56 198.06C320.41 199.8 305.52 208.5 302.73 212.44C300.12 216.14 299.08 220.98 298.28 225.69C295.92 239.48 294.85 253.46 295.09 267.45C295.13 269.99 295.48 273.03 297.45 274.14C298.76 274.88 300.34 274.44 301.63 273.64C307.88 269.78 308.59 259.97 311.13 252.27C313.99 243.57 314.04 233.75 321.5 230.44C327.59 227.73 340.4 230.25 346.84 228.95C353.28 227.65 360.01 224.84 363.71 218.56C370.21 207.52 362.51 197.44 352.97 197.24C339.72 196.97 337.07 192.91 324.57 198.04L324.56 198.06Z" fill="#231F20"/>
<path d="M324.56 198.06C320.41 199.8 305.52 208.5 302.73 212.44C300.12 216.14 299.08 220.98 298.28 225.69C295.92 239.48 294.85 253.46 295.09 267.45C295.13 269.99 295.48 273.03 297.45 274.14C298.76 274.88 300.34 274.44 301.63 273.64C307.88 269.78 308.59 259.97 311.13 252.27C313.99 243.57 314.04 233.75 321.5 230.44C327.59 227.73 340.4 230.25 346.84 228.95C353.28 227.65 360.01 224.84 363.71 218.56C370.21 207.52 362.51 197.44 352.97 197.24C339.72 196.97 337.07 192.91 324.57 198.04L324.56 198.06Z" fill="url(#paint4_linear_1350_407)"/>
<path d="M290.879 183.49C288.409 184.18 286.039 185.21 283.839 186.53C282.099 187.5 280.359 188.5 278.619 189.52C278.099 189.77 277.659 190.14 277.309 190.61C276.979 191.1 277.029 191.75 277.439 192.18C277.749 192.39 278.129 192.5 278.509 192.48C285.769 192.85 293.029 191.31 300.259 191.8C303.439 192.02 306.719 192.62 309.729 191.58C311.009 191.26 312.049 190.32 312.509 189.08C312.869 187.65 311.639 185.48 310.409 184.73C308.969 183.86 306.229 184.21 304.549 183.99C300.029 183.42 295.369 182.42 290.859 183.49H290.879Z" fill="#FFB4A3"/>
<path d="M293.929 180.09C295.699 180.15 297.439 180.62 298.989 181.47C300.009 181.83 300.879 182.54 301.429 183.47C301.659 183.94 301.639 184.48 301.379 184.93C301.139 185.23 300.809 185.45 300.439 185.56C299.249 185.85 298.009 185.91 296.789 185.74C292.859 185.5 288.919 185.96 285.139 187.08C284.229 187.43 283.269 187.61 282.289 187.6C282.069 187.6 281.849 187.51 281.709 187.35C281.619 187.19 281.599 187 281.659 186.83C281.829 186.28 282.149 185.78 282.579 185.39C283.449 184.48 284.319 183.6 285.189 182.74C285.769 182.06 286.609 181.66 287.499 181.65C289.719 181.38 291.739 180.15 293.919 180.08L293.929 180.09Z" fill="#FFB4A3"/>
<path d="M293.49 280.07C291.38 282.92 289.32 286.06 289.14 289.6C289.07 290.11 289.18 290.62 289.44 291.05C289.73 291.39 290.13 291.62 290.56 291.7C292.8 292.14 295.11 291.49 296.81 289.96C298.47 288.45 299.88 286.69 300.99 284.74L305.17 278.23C305.42 277.92 305.56 277.54 305.58 277.14C305.58 276.6 305.09 276.2 304.71 275.78C303.47 274.29 303.64 272.23 303.61 270.45C297.9 271.27 296.68 275.81 293.47 280.06L293.49 280.07Z" fill="#231F20"/>
<path d="M166.38 238.129C170.18 242.759 169.86 249.369 169.96 255.369C170.04 261.209 170.65 267.039 171.78 272.769C172.03 274.029 172.41 275.429 173.52 276.079C174.21 276.409 174.96 276.569 175.72 276.539L182.52 276.839C184.26 276.919 186.22 276.889 187.34 275.589C187.92 274.789 188.28 273.859 188.39 272.879C190.2 263.639 191.24 254.269 191.49 244.859C191.74 241.159 191.45 237.439 190.62 233.819C189.65 230.239 187.64 226.859 184.53 224.829C181.1 222.649 176.83 222.429 172.78 222.309C168.43 222.179 163.99 222.099 159.88 223.499C156.49 224.659 150.07 228.339 154.77 231.649C158.55 234.349 163.17 234.219 166.38 238.129Z" fill="#231F20"/>
<path d="M166.38 238.129C170.18 242.759 169.86 249.369 169.96 255.369C170.04 261.209 170.65 267.039 171.78 272.769C172.03 274.029 172.41 275.429 173.52 276.079C174.21 276.409 174.96 276.569 175.72 276.539L182.52 276.839C184.26 276.919 186.22 276.889 187.34 275.589C187.92 274.789 188.28 273.859 188.39 272.879C190.2 263.639 191.24 254.269 191.49 244.859C191.74 241.159 191.45 237.439 190.62 233.819C189.65 230.239 187.64 226.859 184.53 224.829C181.1 222.649 176.83 222.429 172.78 222.309C168.43 222.179 163.99 222.099 159.88 223.499C156.49 224.659 150.07 228.339 154.77 231.649C158.55 234.349 163.17 234.219 166.38 238.129Z" fill="url(#paint5_linear_1350_407)"/>
<path d="M177.29 282.07C177.26 282.71 177.35 283.35 177.57 283.95C177.79 284.39 178.09 284.8 178.44 285.14C181.66 288.74 185.93 291.23 190.66 292.25C191.7 292.59 192.83 292.48 193.78 291.95C194.52 291.29 194.94 290.34 194.93 289.34C195.07 285.94 193.15 282.8 190.08 281.35C188.94 280.84 187.7 280.59 186.55 280.1C185.35 279.68 184.4 278.75 183.94 277.57C183.5 276.12 184.15 274.22 182.97 273.26C181.3 271.91 178.29 272.09 177.39 274.04C176.43 276.09 177.24 279.81 177.29 282.06V282.07Z" fill="#231F20"/>
<path d="M128.419 298.519C138.598 298.519 146.849 295.256 146.849 291.229C146.849 287.203 138.598 283.939 128.419 283.939C118.241 283.939 109.989 287.203 109.989 291.229C109.989 295.256 118.241 298.519 128.419 298.519Z" fill="#FFBA08"/>
<path d="M128.419 298.519C138.598 298.519 146.849 295.256 146.849 291.229C146.849 287.203 138.598 283.939 128.419 283.939C118.241 283.939 109.989 287.203 109.989 291.229C109.989 295.256 118.241 298.519 128.419 298.519Z" fill="url(#paint6_linear_1350_407)"/>
<path d="M128.479 236.819C131.159 236.819 133.339 238.999 133.339 241.679V286.629C133.339 289.319 131.159 291.489 128.479 291.489C125.799 291.489 123.619 289.309 123.619 286.629V241.679C123.619 238.989 125.799 236.819 128.479 236.819Z" fill="#FFBA08"/>
<path d="M128.479 236.819C131.159 236.819 133.339 238.999 133.339 241.679V286.629C133.339 289.319 131.159 291.489 128.479 291.489C125.799 291.489 123.619 289.309 123.619 286.629V241.679C123.619 238.989 125.799 236.819 128.479 236.819Z" fill="url(#paint7_linear_1350_407)"/>
<path d="M91.5296 176.82C83.6996 182.09 82.0596 193.08 83.4496 202.43C87.2796 228.3 110.06 250.15 136.08 252.89C143.73 253.69 152.11 252.76 157.83 247.67C164.23 242.01 165.85 232.27 163.58 224.02C161.31 215.77 155.75 208.82 149.66 202.83C141.26 194.59 131.61 187.73 121.06 182.51C111.88 177.93 101.95 169.82 91.5296 176.81V176.82Z" fill="#FFBA08"/>
<path d="M91.5296 176.82C83.6996 182.09 82.0596 193.08 83.4496 202.43C87.2796 228.3 110.06 250.15 136.08 252.89C143.73 253.69 152.11 252.76 157.83 247.67C164.23 242.01 165.85 232.27 163.58 224.02C161.31 215.77 155.75 208.82 149.66 202.83C141.26 194.59 131.61 187.73 121.06 182.51C111.88 177.93 101.95 169.82 91.5296 176.81V176.82Z" fill="url(#paint8_linear_1350_407)"/>
<path d="M231.02 158.16C228.88 166.23 226.02 174.09 222.48 181.65C219.77 187.35 216.26 193.27 210.4 195.57C203.67 198.18 195.24 195.42 189.52 199.74C187.65 201.12 186.33 203.14 184.8 204.89C177.2 213.84 165.12 217.35 153.73 220.09C142.65 222.76 130.66 225.09 120.18 220.6C118.12 219.71 116.17 218.59 114.37 217.26C108.38 212.91 103.78 206.71 99.5797 200.46C99.1197 199.77 98.6597 199.11 98.1997 198.42C95.9297 195 93.5697 191.46 92.8197 187.46C91.6397 181.37 94.2597 175.15 97.4197 169.77C100.9 164.06 104.76 158.6 108.98 153.42C114.99 145.86 121.44 138.32 129.86 133.6C135.95 130.23 142.75 128.48 149.49 126.75C161.91 123.58 172.98 125.83 184.1 132.36C191.3 136.55 194.31 145.36 195.58 153.56C196.08 156.73 196.39 159.92 196.79 163.13C197.45 168.25 198.37 173.28 200.65 177.92C206.03 175.01 208.18 168.57 210.22 162.82C210.83 160.61 211.92 158.57 213.41 156.83C214.05 156.2 214.78 155.66 215.58 155.25C219.35 153.24 224.46 153.99 228.9 154.91C229.76 154.96 230.56 155.38 231.08 156.06C231.33 156.74 231.31 157.49 231.03 158.16H231.02Z" fill="#FFBA08"/>
<path d="M221.64 167.199C219.16 174.289 215.54 180.929 210.9 186.849C209.22 189.199 207.14 191.219 204.75 192.839C201.1 195.169 196.69 195.829 192.4 196.489C187.8 197.149 187.28 195.719 187.65 191.969C188.15 187.109 187.16 181.819 186.88 176.919C186.31 166.589 185.93 156.269 186.08 145.899C190.33 151.159 193.92 156.939 196.75 163.079C197.41 168.199 198.33 173.229 200.61 177.869C205.99 174.959 208.14 168.519 210.18 162.769C210.79 160.559 211.88 158.519 213.37 156.779C214.01 156.149 214.74 155.609 215.54 155.199C217.26 154.789 219.06 155.159 220.48 156.209C223.59 158.619 222.93 163.479 221.64 167.199Z" fill="url(#paint9_linear_1350_407)"/>
<path d="M184.29 201.52C183.79 201.88 183.17 202.06 182.55 202.01L164.83 202.78C159.28 203.01 153.52 203.3 148.58 205.72C147.11 206.43 145.73 207.36 144.23 207.96C142.39 208.6 140.52 209.15 138.63 209.59C135.2 210.57 122.72 215.92 119.24 216.72C117.65 217.09 116.01 217.25 114.38 217.21C108.39 212.86 103.79 206.66 99.5898 200.41C102.2 199.35 104.81 198.34 105.23 198.25C108.76 197.78 112.32 197.63 115.88 197.79C121.66 197.85 127.47 197.94 133.28 198.02C135.01 198.15 136.75 197.95 138.4 197.45C140.25 196.59 141.89 195.33 143.2 193.76C143.51 193.47 143.84 193.07 143.75 192.67C143.64 192.37 143.42 192.12 143.14 191.97C141.76 191.15 140.61 190.01 139.77 188.64C139.23 187.54 139.52 186.13 138.8 185.16C137.85 183.95 134.86 183.18 133.48 182.55L127.33 179.61C126.29 179.16 125.32 178.54 124.48 177.77C122.61 175.78 122.74 172.55 123.88 170.05C125.02 167.55 126.81 165.48 128.17 163.09C129.32 161.02 130.09 158.74 131.24 156.7C132.39 154.66 134.03 152.71 136.28 151.96C138.76 151.09 141.43 151.87 143.94 152.62C152.77 155.23 161.64 157.84 170.47 160.5C174.21 161.59 178.38 163.06 180.11 166.59C180.98 168.38 181.06 170.45 181.17 172.46C181.53 181.39 182.68 190.26 184.6 198.99C184.82 199.85 184.96 200.87 184.32 201.5L184.29 201.52Z" fill="url(#paint10_linear_1350_407)"/>
<path d="M182.43 104.219C183.05 105.399 184.17 106.489 184 107.819C183.85 109.479 181.96 110.339 181.05 111.739C179.61 113.929 180.7 117.219 178.99 119.199C177.81 120.549 175.81 120.699 174.14 121.319C171.01 122.489 168.87 125.459 167.69 128.589C167.21 129.879 166.74 131.159 166.21 132.429C162.5 141.319 153.9 128.249 154.3 125.839C154.7 123.429 156.91 118.089 157.44 115.739C158.31 112.079 157.81 108.259 158 104.509C158.17 101.259 158.82 98.0494 159.95 94.9894C160.54 93.1494 161.55 91.4694 162.92 90.0994C165.03 88.1994 168.05 87.6694 170.89 87.7394C173.02 87.7894 175.3 88.2194 176.79 89.7394C177.71 90.8494 178.39 92.1394 178.77 93.5294C179.08 94.5094 179.48 95.4694 179.96 96.3794C180.46 97.1294 180.84 97.9594 181.09 98.8194C181.56 100.629 181.59 102.529 182.43 104.219Z" fill="#FFB4A3"/>
<path d="M167.66 85.4599C171.62 85.7899 175.77 87.1499 178.1 90.3499C178.94 91.2999 179.26 92.5999 178.97 93.8299C178.63 94.6099 178.06 95.2699 177.33 95.7099C176.2 96.4899 174.94 97.0799 173.61 97.4499C171.3 98.0999 168.56 98.2299 167.11 100.13C165.8 101.83 166.12 104.23 165.48 106.27C165.4 106.54 165.25 106.84 164.97 106.87C164.81 106.87 164.65 106.81 164.53 106.71C163.41 105.95 162.45 104.67 161.1 104.72C159.75 104.77 158.73 106.46 158.96 107.9C159.33 109.3 160.1 110.57 161.18 111.55C161.8 112.11 162.26 112.83 162.49 113.64C162.77 115.06 161.52 116.44 160.11 116.75C158.66 116.95 157.19 116.6 155.98 115.78C152.87 113.93 150.69 110.82 149.02 107.59C148.27 106.23 147.74 104.76 147.44 103.24C147.25 101.72 147.28 100.18 147.54 98.6699C148 95.1899 149.05 91.8099 152.48 90.2999C155.39 89.0199 157.84 86.8199 160.94 85.9499C163.14 85.3899 165.41 85.2299 167.67 85.4599H167.66Z" fill="#231F20"/>
<path d="M221.88 143.259C224.06 139.779 227.23 136.839 231.15 135.739C230.85 137.349 230.22 138.879 229.3 140.239C234.17 137.899 239.3 136.129 244.58 134.969C245.18 134.829 245.92 134.759 246.32 135.249C246.49 135.509 246.56 135.809 246.53 136.119C246.44 137.559 245.96 138.939 245.16 140.129C242.85 143.989 239.39 147.029 235.26 148.829C233.2 149.699 230.95 150.309 229.21 151.729C227.81 152.889 226.86 154.479 225.73 155.869C224.6 157.259 222.52 158.979 220.42 158.479C218.78 158.059 217.55 156.679 217.33 154.999C217.23 153.259 218.31 151.199 218.9 149.629C219.68 147.409 220.67 145.279 221.88 143.259Z" fill="#FFB4A3"/>
<path d="M115.649 177.59C124.549 177.36 133.459 177.68 142.329 178.55C142.809 178.5 143.239 178.85 143.279 179.33C143.279 179.38 143.279 179.42 143.279 179.47C143.579 182.5 143.499 185.55 143.029 188.56C142.959 189.27 142.739 189.95 142.369 190.55C141.779 191.24 140.989 191.73 140.099 191.92C138.499 192.33 136.869 192.57 135.219 192.64C123.829 193.51 112.399 194.47 100.979 193.84C99.4692 193.88 97.9692 193.53 96.6292 192.85C95.7092 192.22 94.9392 191.4 94.3592 190.45C93.5892 189.33 92.9992 188.1 92.6192 186.8C91.9992 184.48 92.3492 182.01 93.5892 179.95C95.0192 177.79 97.1792 176.21 99.6792 175.5C102.149 174.81 104.729 174.59 107.279 174.87C108.569 174.94 109.829 175.19 111.049 175.62C113.329 176.49 115.469 178.37 117.849 177.88" fill="#FFBA08"/>
<path d="M152.47 184.71C157.94 184.71 163.84 185.25 168.02 188.8C168.54 189.19 168.95 189.71 169.21 190.31C169.44 190.93 169.27 191.62 168.77 192.05C168.41 192.26 168 192.37 167.58 192.35C163.51 192.53 159.41 191.36 155.4 191.98C153.4 192.28 151.47 193.03 149.45 193.21C145.61 193.53 141.94 191.77 138.5 190.07C138.26 189.97 138.05 189.81 137.89 189.6C137.75 189.25 137.78 188.85 137.96 188.52C138.28 187.65 138.75 186.1 139.46 185.51C140.17 184.92 142.19 185.08 143.23 185.02C146.3 184.85 149.39 184.71 152.49 184.7L152.47 184.71Z" fill="#FFB4A3"/>
<path d="M179.41 159.319H176.11C174.486 159.319 173.17 160.636 173.17 162.259V178.379C173.17 180.003 174.486 181.319 176.11 181.319H179.41C181.034 181.319 182.35 180.003 182.35 178.379V162.259C182.35 160.636 181.034 159.319 179.41 159.319Z" fill="#FFBA08"/>
<path d="M114.92 212.309C125.74 204.579 142.4 205.35 155.7 205.04C165.07 204.81 174.49 204.83 183.77 206.22C188 206.86 192.26 207.789 195.99 209.869C199.72 211.939 202.95 215.25 205.88 218.57C216.73 230.85 225.73 244.979 230.85 260.559C228.01 261.849 224.97 262.65 221.86 262.92C220.79 263.07 219.7 262.979 218.67 262.679C217.55 262.199 216.54 261.489 215.71 260.589C208.17 253.529 200.55 246.5 192.38 240.16C189.16 237.66 185.72 235.199 181.7 234.459C179.36 234.139 177 234.139 174.66 234.459C168.99 234.999 163.34 235.79 157.72 236.82C147.28 238.74 135.8 242.7 127.03 236.66C112.39 226.53 112 214.39 114.9 212.32L114.92 212.309Z" fill="#231F20"/>
<path d="M114.92 212.309C125.74 204.579 142.4 205.35 155.7 205.04C165.07 204.81 174.49 204.83 183.77 206.22C188 206.86 192.26 207.789 195.99 209.869C199.72 211.939 202.95 215.25 205.88 218.57C216.73 230.85 225.73 244.979 230.85 260.559C228.01 261.849 224.97 262.65 221.86 262.92C220.79 263.07 219.7 262.979 218.67 262.679C217.55 262.199 216.54 261.489 215.71 260.589C208.17 253.529 200.55 246.5 192.38 240.16C189.16 237.66 185.72 235.199 181.7 234.459C179.36 234.139 177 234.139 174.66 234.459C168.99 234.999 163.34 235.79 157.72 236.82C147.28 238.74 135.8 242.7 127.03 236.66C112.39 226.53 112 214.39 114.9 212.32L114.92 212.309Z" fill="url(#paint11_linear_1350_407)"/>
<path d="M226.63 270.26C226.88 270.73 227.22 271.14 227.64 271.47C228.44 271.89 229.37 272 230.25 271.77C232.43 271.41 234.59 270.94 236.72 270.37L245.49 268.16C246.1 268 246.83 267.72 246.93 267.11C246.94 266.67 246.76 266.25 246.44 265.95C243.67 262.7 239.04 261.6 234.77 261.93C232.93 262.08 230.97 262.43 229.34 261.56C228.99 261.32 228.6 261.14 228.19 261.02C227.71 260.98 227.24 261.06 226.81 261.27C224.73 262.05 222.4 262.08 222.95 264.39C223.4 266.21 225.63 268.74 226.63 270.25V270.26Z" fill="#231F20"/>
<path d="M197.55 70.5498C197.83 71.9498 196.85 73.2698 195.93 74.3698C195.01 75.4698 193.82 77.6798 192.58 78.2198C191.07 78.8698 190.95 78.1098 191.29 76.9498C191.68 75.6098 193.03 74.1798 193.98 73.2098C194.3 72.9198 197.54 70.5198 197.55 70.5598V70.5498Z" fill="#FFBA08"/>
<path d="M204.75 80.0397C205.04 80.5397 204.37 81.0397 203.83 81.2497C200.93 82.3297 197.91 83.8597 194.91 84.5097C192.3 81.5097 203.19 79.8997 204.75 80.0397Z" fill="#FFBA08"/>
<path d="M206.549 90.5393C206.929 90.6193 207.419 90.7693 207.459 91.1693C207.499 91.5693 207.049 91.8993 206.589 92.0393C205.189 92.4893 198.639 93.3593 198.759 91.6093C199.019 88.3893 204.999 90.2193 206.549 90.5393Z" fill="#FFBA08"/>
<path d="M87.9797 192.94H383.38C385.62 192.94 387.43 194.75 387.43 196.99C387.43 199.23 385.61 201.04 383.38 201.04H87.9797C85.7397 201.04 83.9297 199.23 83.9297 196.99C83.9297 194.75 85.7497 192.94 87.9797 192.94Z" fill="#FFBA08"/>
<path d="M87.9797 192.94H383.38C385.62 192.94 387.43 194.75 387.43 196.99C387.43 199.23 385.61 201.04 383.38 201.04H87.9797C85.7397 201.04 83.9297 199.23 83.9297 196.99C83.9297 194.75 85.7497 192.94 87.9797 192.94Z" fill="url(#paint12_linear_1350_407)"/>
<defs>
<linearGradient id="paint0_linear_1350_407" x1="352.63" y1="268.72" x2="349.93" y2="301.67" gradientUnits="userSpaceOnUse">
<stop stop-color="#231F20" stop-opacity="0"/>
<stop offset="1" stop-color="#231F20"/>
</linearGradient>
<linearGradient id="paint1_linear_1350_407" x1="345.59" y1="264.15" x2="355.31" y2="264.15" gradientUnits="userSpaceOnUse">
<stop stop-color="#231F20" stop-opacity="0"/>
<stop offset="1" stop-color="#231F20"/>
</linearGradient>
<linearGradient id="paint2_linear_1350_407" x1="382.289" y1="223.16" x2="325.579" y2="202.1" gradientUnits="userSpaceOnUse">
<stop stop-color="#231F20" stop-opacity="0"/>
<stop offset="1" stop-color="#231F20"/>
</linearGradient>
<linearGradient id="paint3_linear_1350_407" x1="320.18" y1="159.44" x2="368.24" y2="323.08" gradientUnits="userSpaceOnUse">
<stop stop-color="#231F20" stop-opacity="0"/>
<stop offset="1" stop-color="#231F20"/>
</linearGradient>
<linearGradient id="paint4_linear_1350_407" x1="297.46" y1="224.06" x2="351.73" y2="245.93" gradientUnits="userSpaceOnUse">
<stop stop-color="#231F20" stop-opacity="0"/>
<stop offset="1" stop-color="#231F20"/>
</linearGradient>
<linearGradient id="paint5_linear_1350_407" x1="199.19" y1="281.299" x2="153.01" y2="208.799" gradientUnits="userSpaceOnUse">
<stop stop-color="#231F20" stop-opacity="0"/>
<stop offset="1" stop-color="#231F20"/>
</linearGradient>
<linearGradient id="paint6_linear_1350_407" x1="130.269" y1="268.719" x2="127.559" y2="301.669" gradientUnits="userSpaceOnUse">
<stop stop-color="#231F20" stop-opacity="0"/>
<stop offset="1" stop-color="#231F20"/>
</linearGradient>
<linearGradient id="paint7_linear_1350_407" x1="123.629" y1="264.149" x2="133.339" y2="264.149" gradientUnits="userSpaceOnUse">
<stop stop-color="#231F20" stop-opacity="0"/>
<stop offset="1" stop-color="#231F20"/>
</linearGradient>
<linearGradient id="paint8_linear_1350_407" x1="96.4496" y1="223.16" x2="153.16" y2="202.1" gradientUnits="userSpaceOnUse">
<stop stop-color="#231F20" stop-opacity="0"/>
<stop offset="1" stop-color="#231F20"/>
</linearGradient>
<linearGradient id="paint9_linear_1350_407" x1="204.69" y1="151.959" x2="165.39" y2="451.769" gradientUnits="userSpaceOnUse">
<stop stop-color="#231F20" stop-opacity="0"/>
<stop offset="1" stop-color="#231F20"/>
</linearGradient>
<linearGradient id="paint10_linear_1350_407" x1="166.19" y1="168.11" x2="54.4199" y2="312.31" gradientUnits="userSpaceOnUse">
<stop stop-color="#231F20" stop-opacity="0"/>
<stop offset="1" stop-color="#231F20"/>
</linearGradient>
<linearGradient id="paint11_linear_1350_407" x1="180.99" y1="265.91" x2="145.35" y2="159.79" gradientUnits="userSpaceOnUse">
<stop stop-color="#231F20" stop-opacity="0"/>
<stop offset="1" stop-color="#231F20"/>
</linearGradient>
<linearGradient id="paint12_linear_1350_407" x1="235.52" y1="206.18" x2="236.06" y2="175.86" gradientUnits="userSpaceOnUse">
<stop stop-color="#231F20" stop-opacity="0"/>
<stop offset="1" stop-color="#231F20"/>
</linearGradient>
</defs>
</svg>
