<svg width="94" height="87" xmlns="http://www.w3.org/2000/svg" xmlns:xlink="http://www.w3.org/1999/xlink" xml:space="preserve" overflow="hidden"><g transform="translate(-180 -201)"><g><g><g><g><path d="M68.0833 60.1104 49.9875 42.0235 65.9333 36.2812C66.7521 35.9999 67.1879 35.108 66.9064 34.2892 66.7494 33.8321 66.3903 33.4731 65.9333 33.316L19.986 17.9973C19.8213 17.943 19.6488 17.9158 19.4754 17.9167 18.6147 17.9351 17.932 18.6478 17.9504 19.5085 17.9538 19.668 17.9817 19.826 18.0331 19.9771L33.316 65.9692C33.6045 66.7855 34.5002 67.2134 35.3165 66.9249 35.7632 66.7671 36.1144 66.4158 36.2723 65.9692L42.0235 50.0054 60.1015 68.0833Z" fill="#FFFFFF" fill-rule="nonzero" fill-opacity="1" transform="matrix(1.0814 0 0 1 181 202)"/></g></g></g></g></g></svg>